<?xml version="1.0" encoding="UTF-8"?><svg id="Layer_1" xmlns="http://www.w3.org/2000/svg" viewBox="0 0 75.27 74.63"><defs><style>.cls-1{fill:#fef0cf;}</style></defs><g><path class="cls-1" d="M55.99,37.95l-.21,.21h0l-2.73,2.73h0l-.21,.21,.22,.22,.97-.33h.04c.2-.07,.4,0,.55,.14l.04,.04,4.72,4.72c1.76,1.76,2.03,3.47,.75,4.84h0c-.07,.08-.15,.15-.22,.22-1.4,1.4-3.15,1.17-4.96-.64l-3.75-3.75c-.54-.54-.83-.83-1.01-1.01-.13-.15-.2-.35-.14-.54v-.03h.01l.33-.97-.22-.22-.2,.2h0l-2.73,2.73h0l-.21,.21,.22,.22,.97-.33h.03c.23-.08,.45,.02,.61,.19h0l4.7,4.7c.98,.98,1.87,1.92,3.37,1.99,.66,.03,1.32-.14,1.92-.43,0,0,.09-.05,.26-.14,.07-.04,.14-.08,.2-.12,.78-.47,2.31-1.57,3.03-3.26v-.02s.04-.04,.04-.07h0c.25-.55,.39-1.16,.37-1.77-.07-1.51-1.01-2.39-1.99-3.37l-4.7-4.71h0c-.15-.17-.25-.38-.19-.6v-.03h.01l.33-.97-.22-.22Z"/><path class="cls-1" d="M38.92,54.99l-.11,.11-.95,.95-1.09,1.09-.95,.95-.12,.11,.22,.22,.97-.33h.04c.21-.07,.42,.02,.58,.16l6.56,6.56c1.93,2.02,2.54,3.47,1.22,6.17l.24,.24s2.1-2.13,1.91-4.23h0c-.08-1.08-.66-2.27-1.9-3.63l-6.55-6.55h0c-.16-.17-.27-.39-.2-.61v-.04h.01l.33-.97-.22-.22Z"/><path class="cls-1" d="M41.09,65.68c-2.83-2.6-7.16,2.35-9.06,.45-.96-.96-.33-2.32,.46-3.11,.3-.3,.82-.7,1.3-.9,.35-.16,1.12-.34,1.77-.29,.1,.02,.16,.02,.16,.02h0l.1-.1h0l.15-.15-2.36-1.36-.17,.17c.05,.2-.27,.43-.27,.43-.62,.38-.98,.65-1.52,1.12-1.86,1.65-2.81,4.14-1.06,5.88,2.93,2.93,7.12-2.38,9.28-.22,.97,.97,.44,2.79-.35,3.58-.55,.55-1.25,1.01-1.99,1.33-.98,.4-2.05,.34-2.05,.34l-.18,.24,2.56,1.49,.13-.13s-.11-.28,.18-.45h0c.8-.46,1.54-1.03,2.19-1.68,2.41-2.41,2.25-5.28,.71-6.69Z"/><path class="cls-1" d="M52.79,53.97c-2.83-2.6-7.16,2.35-9.06,.45-.96-.96-.33-2.32,.46-3.1,.29-.29,.82-.7,1.3-.89,.35-.16,1.13-.35,1.77-.29,.1,.01,.16,.02,.16,.02h0l.1-.1h0l.15-.15-2.36-1.36-.17,.17c.05,.2-.27,.43-.27,.43-.62,.37-.98,.65-1.51,1.12-1.86,1.65-2.81,4.14-1.06,5.88,2.93,2.93,7.12-2.38,9.28-.22,.97,.97,.44,2.79-.35,3.58-.56,.56-1.24,1.01-1.98,1.33-.98,.4-2.05,.34-2.05,.34l-.17,.24,2.56,1.49,.13-.13s-.11-.28,.18-.45h0c.8-.46,1.54-1.03,2.19-1.68,2.41-2.41,2.25-5.28,.71-6.69Z"/></g><g><path class="cls-1" d="M38.6,19.09l.21,.21h0l2.73,2.73h0l.21,.2,.22-.22-.33-.97h0v-.04c-.07-.2,0-.4,.14-.55,.01-.01,.03-.02,.04-.04l4.71-4.72c1.76-1.76,3.47-2.03,4.84-.75h.01c.07,.07,.14,.14,.21,.21,1.4,1.4,1.17,3.15-.64,4.96l-3.75,3.75c-.54,.54-.83,.83-1.01,1.01-.15,.13-.34,.2-.54,.14h-.03l-.97-.34-.22,.22,.2,.2h0l2.73,2.73h0l.21,.21,.22-.22-.33-.97h0v-.03c-.08-.23,.02-.45,.19-.61h0l4.7-4.7c.98-.98,1.92-1.87,1.99-3.38,.03-.66-.14-1.32-.43-1.92,0,0-.05-.09-.14-.26-.04-.07-.08-.14-.12-.2-.47-.78-1.57-2.31-3.26-3.03h-.02s-.04-.03-.07-.04h0c-.56-.24-1.16-.39-1.78-.36-1.51,.07-2.39,1.01-3.37,1.99l-4.71,4.7h0c-.16,.16-.38,.26-.59,.2h-.04l-.97-.34-.22,.22Z"/><path class="cls-1" d="M55.64,36.16l.11,.11,.95,.95,1.09,1.09,.95,.95,.11,.11,.22-.22-.33-.97h0v-.04c-.07-.21,.02-.42,.16-.58l6.56-6.56c2.02-1.93,3.47-2.54,6.17-1.22l.24-.24s-2.13-2.1-4.23-1.91h0c-1.08,.08-2.27,.66-3.63,1.9l-6.55,6.55h0c-.16,.16-.38,.26-.61,.2h-.04l-.97-.34-.22,.22Z"/><path class="cls-1" d="M66.32,33.99c-2.6,2.83,2.35,7.16,.45,9.06-.96,.96-2.32,.33-3.11-.46-.29-.3-.7-.82-.9-1.3-.16-.36-.34-1.12-.29-1.77,.02-.1,.03-.16,.03-.16h0l-.1-.11h0l-.15-.15-1.36,2.36,.17,.17c.2-.05,.43,.27,.43,.27,.38,.62,.65,.98,1.12,1.52,1.65,1.86,4.14,2.81,5.88,1.06,2.93-2.93-2.38-7.12-.22-9.28,.97-.97,2.79-.44,3.58,.35,.55,.55,1.01,1.24,1.33,1.99,.4,.98,.34,2.05,.34,2.05l.24,.18,1.49-2.56-.13-.13s-.28,.11-.45-.18h0c-.46-.8-1.03-1.53-1.68-2.19-2.41-2.41-5.28-2.25-6.69-.71Z"/><path class="cls-1" d="M54.62,22.29c-2.6,2.83,2.35,7.16,.45,9.06-.96,.96-2.32,.33-3.1-.46-.29-.29-.7-.82-.89-1.3-.16-.35-.35-1.12-.29-1.77l.02-.16h0l-.1-.11h0l-.15-.15-1.36,2.36,.17,.17c.2-.06,.43,.27,.43,.27,.37,.62,.65,.98,1.12,1.51,1.65,1.86,4.14,2.81,5.88,1.06,2.93-2.93-2.38-7.12-.22-9.28,.97-.97,2.79-.44,3.58,.35,.56,.56,1.01,1.24,1.33,1.99,.4,.98,.34,2.05,.34,2.05l.24,.18,1.49-2.56-.13-.13s-.28,.11-.45-.18h0c-.46-.8-1.03-1.53-1.68-2.19-2.41-2.41-5.28-2.25-6.69-.71Z"/></g><g><path class="cls-1" d="M18.86,36.67l.21-.21h0l2.73-2.73h0l.21-.21-.22-.22-.97,.33h-.04c-.2,.07-.4,0-.55-.14l-.04-.04-4.72-4.72c-1.76-1.76-2.03-3.47-.75-4.84h0c.07-.08,.15-.15,.22-.22,1.4-1.4,3.15-1.17,4.96,.64l3.75,3.76c.54,.54,.83,.83,1.01,1.01,.13,.15,.2,.34,.14,.54v.03h-.01l-.33,.97,.22,.22,.2-.2h0l2.73-2.73h0l.21-.21-.22-.22-.97,.33h-.03c-.23,.08-.45-.02-.61-.19h0l-4.7-4.7c-.98-.98-1.87-1.92-3.38-1.99-.66-.03-1.32,.14-1.92,.43,0,0-.09,.05-.26,.14-.07,.04-.14,.08-.21,.12-.77,.47-2.31,1.57-3.03,3.26v.02s-.03,.04-.04,.07h0c-.25,.55-.39,1.16-.37,1.77,.07,1.51,1.01,2.39,1.99,3.37l4.7,4.71h0c.16,.17,.25,.38,.19,.6v.04h-.01l-.33,.97,.22,.22Z"/><path class="cls-1" d="M35.93,19.63l.11-.11,.95-.95,1.09-1.09,.95-.95,.11-.11-.22-.22-.97,.33h-.04c-.21,.07-.42-.02-.58-.16l-6.56-6.56c-1.93-2.02-2.54-3.47-1.22-6.17l-.24-.24s-2.1,2.13-1.91,4.23h0c.08,1.08,.66,2.27,1.9,3.63l6.55,6.55h0c.16,.17,.27,.39,.21,.61v.04h-.01l-.33,.97,.22,.22Z"/><path class="cls-1" d="M33.76,8.95c2.83,2.6,7.16-2.35,9.06-.45,.96,.96,.33,2.32-.46,3.11-.29,.3-.82,.7-1.3,.9-.36,.16-1.12,.34-1.77,.29-.1-.02-.16-.02-.16-.02h0l-.1,.1h0l-.14,.15,2.36,1.36,.17-.17c-.06-.2,.27-.43,.27-.43,.62-.38,.98-.65,1.52-1.12,1.86-1.65,2.81-4.14,1.06-5.88-2.93-2.93-7.12,2.38-9.28,.22-.97-.97-.44-2.79,.35-3.58,.55-.55,1.24-1.01,1.99-1.33,.98-.4,2.05-.34,2.05-.34l.18-.24-2.56-1.49-.13,.13s.11,.28-.18,.45h0c-.8,.46-1.54,1.03-2.19,1.68-2.41,2.41-2.25,5.28-.71,6.69Z"/><path class="cls-1" d="M22.06,20.65c2.83,2.6,7.16-2.35,9.06-.45,.96,.96,.33,2.32-.46,3.1-.29,.29-.82,.7-1.3,.89-.35,.16-1.12,.35-1.77,.29-.1-.01-.16-.02-.16-.02h0l-.1,.1h0l-.15,.15,2.36,1.36,.17-.17c-.06-.2,.27-.43,.27-.43,.62-.37,.98-.65,1.51-1.12,1.86-1.65,2.81-4.14,1.06-5.88-2.93-2.93-7.12,2.38-9.28,.22-.97-.97-.44-2.79,.35-3.58,.56-.56,1.24-1.01,1.99-1.33,.98-.4,2.05-.35,2.05-.35l.18-.24-2.56-1.49-.13,.13s.11,.28-.18,.45h0c-.8,.46-1.54,1.03-2.19,1.68-2.41,2.41-2.25,5.28-.71,6.69Z"/></g><g><path class="cls-1" d="M36.67,55.62l-.21-.21h0l-2.73-2.73h0l-.21-.2-.22,.22,.33,.97h0v.04c.07,.2,0,.4-.14,.55-.01,.01-.02,.02-.04,.04l-4.72,4.72c-1.76,1.76-3.47,2.03-4.84,.75h-.01c-.07-.07-.14-.14-.21-.21-1.4-1.4-1.17-3.15,.64-4.96l3.75-3.76c.54-.54,.83-.83,1.01-1.01,.15-.13,.34-.2,.54-.14h.04l.97,.34,.22-.22-.2-.2h0l-2.73-2.73h0l-.21-.21-.22,.22,.33,.97h0v.03c.08,.23-.02,.45-.19,.61h0l-4.7,4.7c-.98,.98-1.92,1.87-1.99,3.38-.03,.66,.14,1.32,.43,1.92,0,0,.05,.09,.14,.26,.04,.07,.08,.14,.12,.2,.47,.78,1.57,2.31,3.26,3.03h.02s.04,.03,.07,.04h0c.56,.24,1.16,.39,1.78,.36,1.51-.07,2.39-1.01,3.37-1.99l4.71-4.7h0c.16-.16,.37-.26,.59-.2h.04l.97,.35,.22-.22Z"/><path class="cls-1" d="M19.63,38.55l-.11-.11-.95-.95-1.09-1.09-.95-.95-.11-.11-.22,.22,.33,.97h0v.04c.07,.21-.01,.42-.16,.58l-6.56,6.56c-2.02,1.93-3.47,2.54-6.17,1.22l-.24,.24s2.13,2.1,4.23,1.91h0c1.08-.08,2.27-.66,3.63-1.9l6.55-6.55h0c.16-.16,.39-.26,.61-.2h.04l.97,.34,.22-.22Z"/><path class="cls-1" d="M8.95,40.73c2.6-2.83-2.35-7.16-.45-9.06,.96-.96,2.32-.33,3.11,.46,.3,.3,.7,.82,.9,1.3,.16,.36,.34,1.12,.29,1.77-.02,.1-.03,.16-.03,.16h0l.1,.11h0l.14,.15,1.36-2.36-.17-.17c-.2,.06-.43-.27-.43-.27-.38-.62-.65-.98-1.12-1.52-1.65-1.86-4.14-2.81-5.88-1.06-2.93,2.93,2.38,7.12,.22,9.28-.97,.97-2.79,.44-3.58-.35-.55-.55-1.01-1.24-1.33-1.99-.4-.98-.34-2.05-.34-2.05l-.24-.18-1.49,2.56,.13,.13s.28-.11,.45,.18H.58c.46,.8,1.03,1.53,1.68,2.19,2.41,2.41,5.28,2.25,6.69,.71Z"/><path class="cls-1" d="M20.65,52.43c2.6-2.83-2.35-7.16-.45-9.06,.96-.96,2.32-.33,3.11,.46,.29,.29,.7,.82,.89,1.3,.16,.35,.35,1.13,.29,1.77-.01,.1-.02,.16-.02,.16h0l.1,.11h0l.15,.15,1.36-2.36-.17-.17c-.2,.06-.43-.27-.43-.27-.37-.62-.65-.98-1.12-1.51-1.65-1.86-4.14-2.81-5.88-1.06-2.93,2.93,2.38,7.12,.22,9.28-.97,.97-2.79,.44-3.58-.35-.56-.56-1.01-1.24-1.33-1.99-.4-.98-.35-2.05-.35-2.05l-.24-.18-1.49,2.56,.13,.13s.28-.11,.45,.18h0c.46,.8,1.03,1.53,1.68,2.19,2.41,2.41,5.28,2.25,6.69,.71Z"/></g></svg>