<?xml version="1.0" encoding="utf-8"?>
<!-- Generator: Adobe Illustrator 26.3.1, SVG Export Plug-In . SVG Version: 6.00 Build 0)  -->
<svg version="1.1" id="Layer_1" xmlns="http://www.w3.org/2000/svg" xmlns:xlink="http://www.w3.org/1999/xlink" x="0px" y="0px"
	 viewBox="0 0 978.3 321.4" style="enable-background:new 0 0 978.3 321.4;" xml:space="preserve">
<style type="text/css">
	.st0{fill:#1E439B;}
	.st1{fill:#FDB71A;}
	.st2{display:none;fill:#010101;enable-background:new    ;}
	.st3{font-family:'ArialMT';}
	.st4{font-size:96.9672px;}
	.st5{letter-spacing:-1;}
	.st6{display:none;}
	.st7{display:inline;fill:#003C7F;}
</style>
<g>
	<g>
		<path class="st0" d="M173.5,200.1c2.4,2.8,5.4,4.6,8.9,5.6c0.9,0.3,1.9,0.5,2.8,0.6c0.1,0,0.2,0,0.3,0c1.2,0.1,2.3,0.1,3.5,0.2
			c0.8,0,1.6,0.1,2.4,0.2c1,0.1,1.9,0.2,2.9,0.3c1.4,0.1,2.7,0.3,4.1,0.6c1.5,0.3,3,0.6,4.6,0.8c0.1,0,0.2,0,0.2,0
			c0.1,0,0.1-0.1,0.1-0.2c-0.1-0.1-0.2-0.3-0.3-0.4c-3.1-4.3-6.3-8.6-9.4-12.9c-3.1-4.2-6.2-8.5-9.3-12.7c-0.1-0.2-0.3-0.3-0.3-0.5
			c0.3,0,0.4,0.1,0.6,0.2c2.2,1.1,4.3,2.3,6.4,3.5c0.2,0.1,0.4,0.2,0.6,0.3c0.2,0.1,0.3,0.1,0.4-0.1c0.1-0.2,0.2-0.4,0.3-0.6
			c0.5-1.2,0.8-2.4,1-3.7c0.2-1.4,0.4-2.7,0.5-4.1c0.2-1.9,0.3-3.9,0.2-5.8c0-0.5-0.1-1-0.1-1.6c-0.3-2.6-0.8-5.2-1.6-7.7
			c-1.3-4.2-3.3-8.1-6.2-11.5c-2.6-3.1-5.7-5.5-9.3-7.3c-2.9-1.5-5.9-2.6-9.1-3.3c-1.8-0.4-3.5-0.6-5.4-0.6c-0.8,0-1.5,0-2.3,0
			c-1.8,0-3.6,0.3-5.3,0.6c-3.5,0.7-6.8,2.1-9.8,4c-2.5,1.7-4.8,3.7-6.7,6c-3.2,3.8-5.6,8.1-7.2,12.8v0.1c0,0.2-0.3,0.5-0.1,0.6
			s0.4-0.1,0.6-0.1c0.7-0.2,1.4-0.3,2.1-0.4c1.8-0.2,3.6-0.3,5.4-0.3c3.2-0.1,6.4-0.1,9.7,0c1.8,0,3.6,0,5.5,0.1
			c1.2,0,2.4,0.1,3.6,0.1c0.6,0,1.2,0.1,1.8,0.1c0.2,0,0.3,0.1,0.2,0.3c-0.2,0.9-0.5,1.8-0.9,2.7c-1.4,3.6-3.7,6.5-6.8,8.9
			c-2.1,1.6-4.4,2.8-6.9,3.8c-2.4,0.9-4.8,1.5-7.3,1.9c-0.8,0.1-1.7,0.2-2.5,0.3c-0.5,0-0.5,0-0.6,0.5c-0.3,1.1-0.6,2.2-0.8,3.3
			c-1,4-2,7.9-3,11.9c-1,3.8-1.9,7.6-2.9,11.4c-1,3.9-2,7.9-3,11.8c-0.1,0.2-0.2,0.5-0.1,0.7c0.3,0.2,0.5,0,0.8-0.1
			c6.4-2.2,12.8-4.4,19.2-6.6c4.1-1.4,8.3-2.8,12.4-4.3c1.8-0.6,3.2-1.6,4.6-2.9c1.5-1.4,2.7-3.1,3.8-4.8c1.6-2.6,2.9-5.4,4-8.3
			c0.1-0.2,0.1-0.3,0.2-0.6c0.2,0.5,0.2,1,0.3,1.5c0.2,1.5,0.3,3,0.3,4.5c0,1.4,0,2.8-0.2,4.3c-0.2,1.9-0.6,3.7-1.2,5.4
			c-0.7,1.9-1.6,3.6-3,5.1c-0.3,0.3-0.5,0.5-1,0.5c-3.7,0.6-7.4,1.7-11,2.9c-4.7,1.5-9.4,3.1-14,4.8c-6.1,2.2-12.1,4.6-18.1,7
			c-2.2,0.9-4.4,1.8-6.6,2.7c-0.2,0.1-0.5,0.1-0.6,0.3h-0.1c0.6-2.5,1.3-5,1.9-7.5c1-3.9,2-7.9,3-11.8c0.8-3.2,1.6-6.4,2.4-9.7
			c1-3.9,2-7.7,2.9-11.5c0.8-3.2,1.6-6.5,2.5-9.7c0.4-1.6,0.8-3.3,1.2-4.9c0.2-0.7,0.3-0.6,0.8-0.6c3.4-0.1,6.8-0.4,10.1-1.3
			c2.1-0.5,4.1-1.3,6-2.3c1.3-0.7,2.6-1.6,3.6-2.8c0.5-0.5,1-1.1,1.3-1.7c0.1-0.1,0.1-0.3,0.2-0.5c0-0.1,0-0.2-0.1-0.2s-0.3,0-0.4,0
			c-1.1,0-2.1,0-3.2,0.1c-1.7,0.1-3.4,0-5.1,0.1c-1.6,0.1-3.3,0-4.9,0.1c-1,0.1-2,0-3,0.1c-1.4,0.1-2.7,0.3-4,0.8
			c-1.5,0.6-2.7,1.6-3.5,3.1c-0.8,1.4-1.5,2.9-2.1,4.4c-1.5,3.6-2.8,7.2-4,10.8c0,0.1-0.1,0.2-0.1,0.3s-0.1,0.3-0.3,0.3
			c-0.1,0-0.2,0.1-0.3,0.1c-1.9,0.7-3.8,1.5-5.7,2.2c-0.2,0.1-0.3,0.1-0.5,0.2c0-0.3,0.1-0.5,0.2-0.7c1.7-5.3,3.6-10.6,5.6-15.9
			c2.4-6.3,5-12.5,7.9-18.6c0.6-1.4,1.3-2.7,2-4.1c0.9-1.8,2-3.5,3.3-5.1c1.5-1.9,3.2-3.6,5-5.3c0.7-0.6,0.6-0.5,0-1.1
			c-1.4-1.4-2.9-2.7-4.4-4.1c-0.5-0.5-0.5-0.5,0-0.9c2.9-2.5,6.1-4.7,9.6-6.5c3.2-1.7,6.6-3,10.1-3.9c1.7-0.4,3.5-0.8,5.2-1
			c1.5-0.2,3-0.3,4.5-0.3c1.6,0,3.2,0.1,4.8,0.3c2.6,0.3,5.2,0.8,7.7,1.5c6.9,2,13,5.4,18.3,10.3c4.2,3.8,7.5,8.3,10.1,13.3
			c1.9,3.7,3.2,7.6,4,11.6c0.3,1.7,0.6,3.5,0.7,5.3c0.2,2.2,0.2,4.3,0.1,6.5c-0.1,1.4-0.2,2.7-0.4,4.1c-0.4,2.4-0.9,4.7-1.7,7
			c-0.4,1.4-1,2.7-1.5,4c-0.1,0.1-0.1,0.3-0.2,0.4c-0.1-0.1,0-0.1,0-0.2c0.2-1.7,0.4-3.4,0.5-5.1c0.2-2.9,0.3-5.8,0.2-8.7
			c0-1.5-0.2-3-0.3-4.4c-0.2-1.6-0.4-3.1-0.7-4.6c-0.6-2.9-1.5-5.6-2.6-8.3c-1.7-4-3.8-7.8-6.7-11.1c-3.3-3.9-7.1-6.9-11.6-9.2
			c-2.4-1.3-5-2.3-7.6-3.1c-1.6-0.5-3.2-0.8-4.8-1.1c-1.2-0.2-2.4-0.3-3.7-0.5c-1-0.1-2.1-0.1-3.1-0.1c-2.9,0-5.7,0.5-8.3,1.5
			c-1.3,0.5-2.5,1.1-3.7,1.9c-0.2,0.1-0.4,0.2-0.4,0.5c0.2,0.1,0.4,0,0.6-0.1c1.6-0.5,3.2-0.8,4.8-1c1.3-0.1,2.6-0.2,3.9-0.2
			c1.2,0,2.3,0.1,3.4,0.2c1.5,0.1,3,0.4,4.5,0.7c6.9,1.4,13.1,4.3,18.4,9c3.2,2.9,5.8,6.3,7.8,10.1c2,3.7,3.3,7.5,4.2,11.6
			c0.3,1.6,0.6,3.3,0.8,5s0.3,3.4,0.2,5.1c0,1-0.1,1.9-0.2,2.9c-0.1,1-0.2,2-0.3,3c-0.2,1.7-0.5,3.4-0.9,5.1c-0.3,1.2-0.6,2.5-1,3.7
			c0,0.1-0.1,0.2-0.1,0.3c-0.1,0.2,0,0.4,0.1,0.6c0.2,0.2,0.3,0.5,0.5,0.7c6.6,9.2,13.2,18.4,19.8,27.5c0.1,0.1,0.2,0.2,0.3,0.4
			c-0.2,0.1-0.3,0-0.4-0.1c-2.4-0.8-4.7-1.5-7.1-2.2c-3.5-1-7.1-1.9-10.7-2.6c-2-0.4-4.1-0.7-6.1-1c-1.3-0.2-2.6-0.3-3.9-0.4
			c-1.4-0.1-2.8-0.2-4.1-0.3c-1.2-0.1-2.5-0.1-3.7,0c-0.7,0-1.4,0.1-2.1,0.1c-0.1,0-0.3,0-0.4,0c-0.2,0-0.3-0.1-0.4-0.2
			c-0.1-0.1-0.1-0.3-0.2-0.5c-1.7-3.6-3.4-7.3-5.1-10.9C173.7,200.6,173.5,200.4,173.5,200.1L173.5,200.1z"/>
		<path class="st0" d="M162.7,86.6c0.1,0.1,0.2,0.1,0.4,0.1c1.1,0,2.1,0.1,3.2,0.1c0.8,0,1.6,0.1,2.4,0.2c0.9,0.1,1.8,0.2,2.7,0.3
			c1.7,0.2,3.4,0.5,5,0.8c0.3,0.1,0.7,0.1,1,0.2c0.1,0,0.3,0.1,0.4,0.2c0,0.2-0.2,0.4-0.3,0.6c-1.2,2.1-2.3,4.2-3.5,6.3
			c-2.3,4.3-4.7,8.5-7.1,12.8c-0.1,0.2-0.2,0.4-0.4,0.6c0,0.1-0.2,0.1-0.2,0c-0.1-0.2-0.2-0.5-0.3-0.7c-1.7-4.3-3.4-8.6-5.2-12.8
			c-1-2.6-2.1-5.2-3.1-7.8c0-0.1-0.1-0.2-0.1-0.3c-0.2-0.4-0.1-0.4,0.3-0.5c0.2,0,0.3,0,0.5,0c0.1,0,0.2-0.1,0.2-0.1
			C160,86.6,161.3,86.6,162.7,86.6z"/>
		<path class="st0" d="M237.7,167.3c-0.1,0.1-0.1,0.2-0.1,0.3c0,0.3,0,0.6,0,0.9c0,1.2-0.1,2.5-0.3,3.7c-0.1,0.8,0,0.8-0.8,0.5
			c-5.5-2.4-11.1-4.8-16.6-7.2c-1-0.4-2.1-0.9-3.1-1.3c-0.2-0.1-0.3-0.1-0.4-0.2c0-0.2,0.1-0.2,0.2-0.2c2.2-1.1,4.4-2.2,6.6-3.4
			c3-1.5,6-3.1,9-4.6c1.4-0.7,2.9-1.5,4.3-2.2c0.6-0.3,0.6-0.3,0.6,0.3c0.2,1.5,0.3,3,0.5,4.6c0.1,0.7,0,1.5,0,2.3
			c0,0.2,0,0.4,0.1,0.5C237.7,163.2,237.7,165.3,237.7,167.3z"/>
		<path class="st0" d="M206.7,133.4c0-0.1,0.1-0.2,0.1-0.3c3.1-5.4,6.2-10.8,9.3-16.2c0.7-1.2,1.4-2.4,2.1-3.6
			c0.1-0.1,0.1-0.3,0.2-0.4c0.1-0.1,0.2-0.2,0.3,0c0.3,0.3,0.6,0.7,0.8,1c3.4,4.1,6.4,8.5,8.9,13.2c0.4,0.7,0.7,1.4,1,2.1
			c0.1,0.1,0.1,0.3,0.2,0.4c0,0.1,0,0.1-0.1,0.2c-0.1,0-0.2,0.1-0.4,0.1c-1.6,0.3-3.1,0.5-4.7,0.8c-1.7,0.3-3.3,0.6-5,0.8
			c-1.6,0.3-3.3,0.5-4.9,0.8c-1.6,0.3-3.3,0.5-4.9,0.8c-1,0.2-2,0.3-3,0.5C206.8,133.5,206.7,133.4,206.7,133.4z"/>
		<path class="st0" d="M154,87c0.1,0,0.3,0,0.5,0s0.2,0.1,0.2,0.2c-0.1,0.6-0.2,1.2-0.3,1.7c-0.5,2.5-1,4.9-1.5,7.4s-1,4.9-1.5,7.4
			c-0.4,1.8-0.7,3.7-1.1,5.5c0,0.1-0.1,0.3-0.1,0.4s0,0.2-0.1,0.2s-0.1-0.1-0.2-0.1c-0.4-0.5-0.9-1-1.3-1.5
			c-3.9-4.7-7.8-9.5-11.7-14.2c-0.5-0.6-1.1-1.3-1.6-1.9c-0.1-0.1-0.2-0.3-0.3-0.4s-0.1-0.2,0.1-0.3c0.7-0.3,1.4-0.5,2.1-0.7
			c3.3-1.1,6.7-2,10.1-2.6c1.4-0.3,2.8-0.5,4.3-0.7C152.3,87.1,153.1,87,154,87z"/>
		<path class="st0" d="M196.4,121.3c0.3-1.2,0.5-2.3,0.8-3.5c0.8-3.5,1.6-7,2.4-10.5c0.5-2.3,1-4.6,1.6-6.9c0.1-0.6,0.3-1.3,0.4-1.9
			c0.1-0.3,0.2-0.4,0.5-0.2c0.1,0,0.1,0.1,0.2,0.1c0.6,0.4,1.2,0.8,1.8,1.2c3.6,2.4,7,5.1,10.1,8c1,0.9,2,1.9,2.9,2.9
			c0.1,0.1,0.2,0.2,0.2,0.3c0,0.1,0,0.1,0,0.2c-0.2,0.1-0.3,0.2-0.5,0.3c-4.6,2.3-9.2,4.6-13.9,6.9c-2,1-4,2-6,3
			c-0.1,0.1-0.2,0.1-0.3,0.2C196.5,121.4,196.5,121.4,196.4,121.3L196.4,121.3z"/>
		<path class="st0" d="M230.9,131.4c0.2,0.1,0.2,0.3,0.3,0.4c1.8,4.3,3.3,8.8,4.4,13.4c0.4,1.7,0.7,3.5,1,5.3c0,0.1,0,0.1,0,0.2
			c0,0.1,0,0.2-0.1,0.2s-0.2,0-0.3,0c-1.3-0.2-2.6-0.4-3.9-0.5c-1.1-0.1-2.2-0.3-3.2-0.4c-1.1-0.1-2.2-0.3-3.2-0.5
			c-1.1-0.1-2.2-0.3-3.2-0.4c-1-0.1-2.1-0.3-3.1-0.4c-1.1-0.1-2.2-0.3-3.2-0.4c-0.9-0.1-1.9-0.3-2.8-0.4c0-0.1,0-0.1,0-0.2
			C214,146.9,230.5,131.7,230.9,131.4z"/>
		<path class="st0" d="M180.8,89.1c0.2,0.1,0.6,0.2,0.9,0.2c4.4,1.3,8.6,2.8,12.7,4.7c1.5,0.7,2.9,1.4,4.3,2.3
			c0.1,0.1,0.3,0.2,0.4,0.3c0.1,0.1,0.1,0.2,0,0.3c-0.1,0.1-0.2,0.2-0.3,0.3c-1.4,1.3-2.8,2.6-4.1,3.9c-1.4,1.3-2.8,2.7-4.2,4
			c-1.6,1.6-3.3,3.1-4.9,4.7c-0.9,0.9-1.8,1.7-2.7,2.6c-0.1,0.1-0.2,0.2-0.3,0.3c-0.1,0-0.2,0.1-0.2,0.1c-0.1,0-0.1-0.1-0.1-0.2
			c0-0.5-0.1-1-0.1-1.5c-0.1-1.3-0.2-2.6-0.3-3.9s-0.2-2.5-0.3-3.8s-0.2-2.5-0.3-3.8s-0.2-2.5-0.3-3.8c0-0.6-0.1-1.1-0.1-1.7
			c-0.1-1.3-0.2-2.6-0.3-3.9c0-0.3-0.1-0.6-0.1-0.9C180.4,89.1,180.5,89.1,180.8,89.1z"/>
		<path class="st0" d="M213.8,179.3c0.5-0.2,0.9-0.2,1.4-0.3c2.1-0.4,4.3-0.7,6.4-1.1c2.1-0.4,4.3-0.7,6.4-1.1
			c1.6-0.3,3.3-0.5,5-0.8c1.1-0.2,2.2-0.4,3.3-0.5c0.1,0,0.1,0,0.2,0c0.3,0,0.4,0,0.3,0.3c-0.1,0.4-0.1,0.8-0.2,1.2
			c-1,4.8-2.3,9.4-4.1,13.9c-0.4,0.9-0.8,1.8-1.2,2.8c-0.1,0.1-0.1,0.3-0.2,0.4c-0.1,0.1-0.2,0.1-0.3,0.1c-0.1-0.1-0.2-0.2-0.3-0.2
			c-4-3.4-7.9-6.9-11.9-10.4c-1.5-1.3-2.9-2.5-4.4-3.8C214.1,179.6,213.9,179.4,213.8,179.3z"/>
		<path class="st0" d="M134.5,115.7c-0.3,0-0.4-0.2-0.5-0.3c-5.9-4.3-11.8-8.7-17.6-13c-0.2-0.1-0.3-0.3-0.5-0.4
			c-0.1-0.1-0.1-0.1,0-0.2s0.1-0.1,0.2-0.2c4.4-3.1,8.9-6,13.9-8.2c0.6-0.3,1.2-0.5,1.8-0.8c0.1,0,0.2-0.1,0.3-0.1
			c0.2-0.1,0.3,0,0.4,0.2c0,0.1,0,0.3,0.1,0.4c0.1,1.3,0.2,2.6,0.4,3.9c0.1,1.1,0.2,2.3,0.3,3.4s0.2,2.2,0.3,3.4
			c0.1,1.1,0.2,2.2,0.3,3.3c0.1,1.1,0.2,2.3,0.3,3.4c0,0.4,0.1,0.9,0.1,1.3c0.1,1.1,0.2,2.2,0.3,3.2
			C134.5,115.3,134.5,115.5,134.5,115.7z"/>
		<path class="st0" d="M122.5,127.2c-0.2-0.1-0.4-0.2-0.6-0.3c-6.3-4-12.5-7.9-18.8-11.9c-0.5-0.3-0.6-0.3-0.1-0.9
			c1.4-1.7,2.8-3.3,4.3-4.8c1.8-1.9,3.8-3.6,5.8-5.3c0.2-0.1,0.3-0.3,0.5-0.4c0.2,0.1,0.2,0.2,0.3,0.4c0.7,1.8,1.3,3.6,2,5.3
			c2,5.3,4,10.7,6,16c0.2,0.5,0.4,1.1,0.6,1.6C122.5,127,122.6,127.1,122.5,127.2z"/>
		<path class="st0" d="M206.3,191.6c0.4-0.1,0.7,0,0.9,0.1c3.1,0.6,6.2,1.1,9.3,1.7c2.8,0.5,5.7,1,8.5,1.6c1.6,0.3,3.2,0.6,4.7,0.9
			c0.2,0,0.3,0.1,0.2,0.3c-0.3,0.7-0.6,1.3-1,2c-1.8,3.4-3.8,6.7-6.1,9.8c-0.5,0.7-0.5,0.8-1.1,0.1c-2.2-2.3-4.4-4.7-6.6-7
			c-2.5-2.6-5-5.3-7.4-7.9c-0.4-0.4-0.8-0.8-1.2-1.3C206.4,191.8,206.4,191.8,206.3,191.6z"/>
		<path class="st1" d="M217,136.7c-0.1,0.3-0.2,0.4-0.3,0.5c-2.7,3.2-5.3,6.3-8,9.5c-0.3,0.4-0.7,0.8-1,1.2c-0.1,0.1-0.2,0.1-0.3,0
			s-0.1-0.3-0.2-0.4c-1.4-3-3-5.9-5-8.6c-0.1-0.1-0.1-0.2-0.2-0.3c-0.1-0.1-0.1-0.2,0.1-0.3c0.1,0,0.2-0.1,0.4-0.1
			c1.7-0.2,3.5-0.4,5.2-0.5c1.4-0.1,2.7-0.3,4.1-0.5c1-0.1,2-0.2,2.9-0.3c0.6-0.1,1.2-0.1,1.7-0.2
			C216.7,136.7,216.8,136.7,217,136.7z"/>
		<path class="st1" d="M206.1,122.7c0,0.2-0.1,0.3-0.1,0.4c-1.8,4.2-3.6,8.4-5.4,12.5c0,0.1-0.1,0.2-0.1,0.3
			c-0.1,0.2-0.2,0.2-0.4,0.1c-0.3-0.3-0.5-0.6-0.8-0.9c-2-2.3-4.2-4.4-6.6-6.2c-0.5-0.4-0.5-0.4,0.1-0.6c4.3-1.8,8.6-3.6,12.9-5.4
			C205.7,122.7,205.9,122.6,206.1,122.7z"/>
		<path class="st1" d="M190.5,127.3c-0.2-0.1-0.4-0.3-0.6-0.4c-2.7-1.8-5.6-3.4-8.7-4.6c-0.1-0.1-0.3-0.1-0.4-0.2
			c-0.1-0.1-0.2-0.2,0-0.3c0.1-0.1,0.2-0.2,0.3-0.3c3.5-2.8,7.1-5.6,10.6-8.4c0.1-0.1,0.2-0.2,0.3-0.2c0.1-0.1,0.2-0.2,0.3-0.1
			c0.2,0.1,0.1,0.2,0.1,0.3c0,0.4-0.1,0.9-0.2,1.3c-0.2,1.9-0.5,3.8-0.7,5.7c-0.2,1.4-0.4,2.9-0.6,4.3c-0.1,0.8-0.2,1.6-0.3,2.4
			C190.6,126.9,190.6,127,190.5,127.3z"/>
		<path class="st1" d="M138,125c-0.1,0.2-0.3,0.2-0.4,0.3c-2.9,1.7-5.5,3.7-8,5.9c-0.1,0.1-0.2,0.2-0.3,0.3s-0.2,0-0.2-0.1
			c-0.1-0.5-0.3-0.9-0.4-1.4c-1-4-2.1-8-3.1-12.1c-0.1-0.2-0.1-0.4-0.1-0.7c0.1,0,0.2,0,0.2,0.1C126,117.6,137.6,124.8,138,125z"/>
		<path class="st1" d="M178,120.7c0,0.2-0.1,0.3-0.2,0.2c-0.2,0-0.4-0.1-0.5-0.2c-2.2-0.7-4.5-1.3-6.8-1.6c-0.9-0.1-1.9-0.3-2.8-0.4
			h-0.1c-0.2,0-0.3-0.1-0.2-0.3c0.1-0.1,0.2-0.2,0.2-0.4c2.6-3.7,5.1-7.4,7.7-11.1c0.1-0.1,0.2-0.2,0.3-0.3c0.1-0.1,0.2,0,0.2,0
			c0.1,0.5,0.2,1,0.3,1.5c0.4,2.5,0.8,4.9,1.2,7.4c0.3,1.7,0.6,3.3,0.8,5C177.9,120.6,177.9,120.7,178,120.7z"/>
		<path class="st1" d="M157.8,105.5c0.3,0.7,0.7,1.3,1,2c1.5,3,2.9,6,4.4,9c0.3,0.6,0.5,1.1,0.8,1.7c0.1,0.2,0,0.3-0.2,0.3
			s-0.3,0-0.5,0c-1,0-2,0-3,0c-0.9,0-1.8,0.1-2.7,0.2c-1.3,0.1-2.5,0.3-3.8,0.5c-0.1,0-0.1,0-0.2,0c-0.2,0-0.3-0.1-0.3-0.3
			c0.3-0.8,0.5-1.6,0.8-2.4c1.1-3.5,2.2-6.9,3.4-10.4C157.5,106,157.6,105.8,157.8,105.5z"/>
		<path class="st1" d="M209.2,151.1c0.7,0,1.4,0.2,2.1,0.3c2.2,0.4,4.5,0.8,6.7,1.2c1.4,0.3,2.9,0.5,4.3,0.8c0.2,0,0.3,0.1,0.5,0.1
			c0,0.2-0.1,0.2-0.2,0.3c-1.2,0.9-2.4,1.7-3.6,2.6c-2.3,1.6-4.5,3.3-6.8,4.9c-0.2,0.1-0.4,0.3-0.6,0.4c-0.1,0.1-0.3,0-0.3-0.1
			c0-0.4-0.1-0.7-0.1-1.1c-0.3-2.5-0.8-4.9-1.5-7.2c-0.2-0.6-0.4-1.2-0.5-1.8C209.2,151.4,209.2,151.2,209.2,151.1L209.2,151.1z"/>
		<path class="st1" d="M140.6,123.6c-0.1-0.1-0.1-0.2-0.1-0.3c0.2-4.6,0.3-9.2,0.5-13.7c0,0,0-0.1,0.1-0.1c0.2,0,0.2,0.1,0.3,0.2
			c2.9,3.3,5.9,6.5,8.8,9.8c0.4,0.4,0.4,0.5-0.2,0.6c-2.9,0.8-5.7,1.8-8.3,3.1c-0.2,0.1-0.5,0.2-0.7,0.3
			C140.8,123.6,140.7,123.6,140.6,123.6z"/>
		<path class="st1" d="M224.7,172.6c-0.4,0.2-0.7,0.3-1,0.3c-4.1,1-8.1,2.1-12.2,3.1c-0.2,0-0.3,0.1-0.5,0.1s-0.3,0-0.3-0.3
			c0.1-0.5,0.2-1,0.3-1.5c0.2-1.4,0.4-2.8,0.5-4.2c0.1-1.1,0.1-2.2,0.1-3.3c0-0.1,0-0.2,0-0.3c0-0.3,0.1-0.4,0.4-0.3
			c0.7,0.3,1.4,0.7,2.1,1c2.1,1,4.1,2,6.2,3c1.2,0.6,2.5,1.2,3.7,1.8C224.2,172.3,224.4,172.4,224.7,172.6z"/>
		<path class="st1" d="M220.1,189.9c-0.2,0.1-0.4,0.1-0.6,0.1c-1.5-0.2-2.9-0.4-4.4-0.6c-1.5-0.2-3-0.4-4.5-0.5
			c-1.3-0.2-2.5-0.3-3.8-0.5c-0.3,0-0.3-0.1-0.2-0.4c0.3-0.5,0.5-0.9,0.8-1.4c1-1.7,1.7-3.6,2.3-5.5c0.2-0.7,0.2-0.7,0.7-0.2
			c3.1,2.9,6.1,5.7,9.2,8.6C219.9,189.7,220,189.8,220.1,189.9z"/>
		<path class="st0" d="M209.2,151.1L209.2,151.1L209.2,151.1z"/>
		<path class="st0" d="M173.5,200.1L173.5,200.1L173.5,200.1z"/>
	</g>
	<g>
		<g>
			<path class="st0" d="M276.7,199.2l-5.1-19.3l2-0.4c1.1,1.3,4.8,5.7,11.4,8.4c5,2,9.8,3,15.5,3c10.1,0,19.2-6,19.2-15
				c0-19.2-45.2-15.8-45.2-42.9c0-15.2,14.3-22.4,29.8-22.4c5,0,9.9,0.8,15.1,2c1.1,0.2,2.6,0.2,3.3-1.1h1.5l4.7,17.4h-2.4
				c0,0-0.2-0.4-0.7-0.9c-2.7-3.2-7.2-6-9.6-6.9c-3.2-1.3-7.8-1.9-10.6-1.9c-7.9,0-17.3,3.4-17.3,12.3c0,16.2,44.3,15.8,45.4,40.7
				c0.6,13.7-11.1,27.8-34.8,27.8c-6.1,0-12.3-0.9-18.1-2.3c-2.2-0.6-3,1.3-3,1.3h-1.1V199.2z"/>
			<path class="st0" d="M328.2,216.8c19-6.5,23.6-16,23.6-34.5v-61c0-1.9-0.6-3.1-2.3-3.9l-5.9-2.9v-2.2h30.1v2.2l-5.9,2.9
				c-1.7,0.8-2.3,2-2.3,3.9v61.1c0,12.2-3.4,20.5-8.1,25.9c-9.2,10.6-29.2,10.8-29.2,10.8L328.2,216.8L328.2,216.8z"/>
			<path class="st0" d="M386.5,199.2l-5.1-19.3l2-0.4c1.1,1.3,4.8,5.7,11.3,8.4c5,2,9.8,3,15.4,3c10,0,19.1-6,19.1-15
				c0-19.2-45-15.8-45-42.9c0-15.2,14.3-22.4,29.7-22.4c5,0,9.9,0.8,15.1,2c1.1,0.2,2.6,0.2,3.3-1.1h1.5l4.7,17.4h-2.4
				c0,0-0.2-0.4-0.7-0.9c-2.7-3.2-7.2-6-9.6-6.9c-3.2-1.3-7.8-1.9-10.6-1.9c-7.9,0-17.2,3.4-17.2,12.3c0,16.2,44.2,15.8,45.3,40.7
				c0.6,13.7-11.1,27.8-34.7,27.8c-6.1,0-12.3-0.9-18-2.3c-2.2-0.6-2.9,1.3-2.9,1.3h-1.2V199.2z"/>
			<path class="st0" d="M490.4,200.3c-10.2,0-19.9-3.1-26.5-10.2c-6.3-6.9-7.2-16-7.2-26.4v-42.4c0-1.9-0.6-3.1-2.3-3.9l-5.9-2.9
				v-2.2h30v2.2l-5.9,2.9c-1.7,0.8-2.3,2-2.3,3.9v43.3c0,17,6.3,27.1,20.5,27.1h0.7c14.1,0,20.5-10.1,20.5-27.1v-43.9
				c0-1.4-0.7-2.7-1.9-3.3l-6.1-3.2v-2h29.2v2l-6.1,3.2c-1.3,0.7-1.9,1.8-1.9,3.6v42.6c0,10.4-0.8,19.4-7.2,26.4
				c-6.6,7.2-16.3,10.2-26.5,10.2h-1.1V200.3z"/>
		</g>
	</g>
	<g>
		<path class="st0" d="M555.1,163.1c0-21.4,15.7-36.8,37.9-36.8s37.9,15.4,37.9,36.8s-15.7,36.8-37.9,36.8S555.1,184.5,555.1,163.1z
			 M622.3,163.1c0-16.9-12.5-29.3-29.4-29.3s-29.4,12.4-29.4,29.3s12.5,29.3,29.4,29.3S622.3,180,622.3,163.1z"/>
		<path class="st0" d="M685.9,163.2v35.5h-8.3V164c0-10.4-4.8-14.7-13.1-14.7c-9.4,0-15.9,6.7-15.9,17.2v32.2h-8.3v-55.6h1.6
			c4.3,0,6.3,2,6.6,7.1c4-5.2,9.9-8.1,17.4-8.1C678.4,142,685.9,150,685.9,163.2z"/>
		<path class="st0" d="M696.6,126.4h3.6c3.7,0,4.7,1.1,4.7,5v67.3h-8.3V126.4z"/>
		<path class="st0" d="M716.7,128.5v-2.2h8.6v10.5C719.4,136.8,716.7,134.4,716.7,128.5z M717,143.1h8.3v55.6H717V143.1z"/>
		<path class="st0" d="M782.4,163.2v35.5h-8.3V164c0-10.4-4.8-14.7-13.1-14.7c-9.4,0-15.9,6.7-15.9,17.2v32.2h-8.3v-55.6h1.6
			c4.3,0,6.3,2,6.6,7.1c4-5.2,9.9-8.1,17.4-8.1C774.9,142,782.4,150,782.4,163.2z"/>
		<path class="st0" d="M847.9,174.1h-48.1c1.4,10.7,9.4,18.3,19.9,18.3c7,0,12.8-3.3,16.3-8.5c1.2-1.7,2.3-2.4,4.7-2.4h5.5
			c-3.9,10.9-14,18.3-26.6,18.3c-16.3,0-28.4-12.2-28.4-28.8s12.1-28.8,28.4-28.8c16.3,0,28.4,12.2,28.4,28.8
			C848.1,172.3,848,173.3,847.9,174.1z M799.9,166.8h39.6c-1.7-10.2-9.6-17.3-19.8-17.3S801.6,156.5,799.9,166.8z"/>
	</g>
</g>
<text transform="matrix(1 0 0 1 547.0771 198.958)" class="st2 st3 st4 st5">Online</text>
<g class="st6">
	<path class="st7" d="M550.7,163.2c0-21.4,15.9-36.8,38-36.8s38.1,15.4,38.1,36.8s-16,36.8-38.1,36.8
		C566.6,200,550.7,184.6,550.7,163.2z M612.6,163.2c0-14.1-10.2-24.1-24-24.1s-24,10.1-24,24.1c0,14.1,10.2,24.1,24,24.1
		C602.4,187.3,612.6,177.2,612.6,163.2z"/>
	<path class="st7" d="M681.2,163.9V199h-12.7v-32.4c0-8.8-3.7-12.8-10.5-12.8c-7.5,0-12,5.1-12,14V199h-12.7v-55.9h2.6
		c5.7,0,8.8,2,9.9,6.5c3.4-4.6,8.3-7.5,15.4-7.5C674.7,142.1,681.2,150.8,681.2,163.9z"/>
	<path class="st7" d="M689.3,126.2h5.5c5.5,0,7.2,1.6,7.2,7.7V199h-12.7V126.2z"/>
	<path class="st7" d="M711,126.3v-1.2h12.8v13.2C715.8,138.4,711,134.2,711,126.3z M711.1,143.1h12.7V199h-12.7V143.1z"/>
	<path class="st7" d="M780.6,163.9V199h-12.7v-32.4c0-8.8-3.7-12.8-10.5-12.8c-7.5,0-12,5.1-12,14V199h-12.7v-55.9h2.6
		c5.7,0,8.8,2,9.9,6.5c3.4-4.6,8.3-7.5,15.4-7.5C774.1,142.1,780.6,150.8,780.6,163.9z"/>
	<path class="st7" d="M844.5,175.6h-44.7c1.7,7.8,7.9,13,16,13c4.9,0,8.9-1.8,11.5-5.1c1.6-1.8,2.7-2.4,5.3-2.4H843
		c-3.9,11.3-14.4,18.9-27.2,18.9c-16.4,0-28.9-12.4-28.9-28.9s12.5-28.9,28.9-28.9s29,12.4,29,28.9
		C844.8,172.7,844.7,174.2,844.5,175.6z M800,165.7h31.6c-1.9-7.4-8-12.2-15.8-12.2S801.9,158.3,800,165.7z"/>
</g>
</svg>
