<?xml version="1.0" encoding="utf-8"?>
<!-- Generator: Adobe Illustrator 26.3.1, SVG Export Plug-In . SVG Version: 6.00 Build 0)  -->
<svg version="1.1" id="Layer_1" xmlns="http://www.w3.org/2000/svg" xmlns:xlink="http://www.w3.org/1999/xlink" x="0px" y="0px"
	 viewBox="0 0 1757.8 423.3" style="enable-background:new 0 0 1757.8 423.3;" xml:space="preserve">
<style type="text/css">
	.st0{fill:#FFB81A;}
	.st1{fill:#FFFFFF;}
</style>
<g>
	<g>
		<path class="st0" d="M332.9,146.1c-0.2,0.8-0.6,1.1-1,1.5c-7.8,9.2-15.5,18.4-23.3,27.6c-1,1.2-2,2.3-3,3.5
			c-0.3,0.3-0.5,0.3-0.7-0.1c-0.2-0.4-0.4-0.8-0.6-1.1c-4-8.9-8.8-17.2-14.5-25.1c-0.2-0.3-0.4-0.6-0.6-0.9
			c-0.3-0.4-0.2-0.7,0.3-0.8c0.4-0.1,0.7-0.2,1.1-0.2c5.1-0.5,10.2-1,15.2-1.6c4-0.4,8-0.9,12-1.3c2.8-0.3,5.7-0.6,8.5-0.9
			c1.7-0.2,3.4-0.4,5.1-0.6C331.9,146.1,332.3,146.1,332.9,146.1L332.9,146.1z"/>
		<path class="st0" d="M300.9,105.1c0.1,0.5-0.2,0.8-0.4,1.2c-5.3,12.2-10.6,24.4-15.9,36.5c-0.1,0.3-0.2,0.6-0.4,0.8
			c-0.3,0.6-0.6,0.7-1.1,0.2c-0.8-0.9-1.6-1.8-2.4-2.8c-5.9-6.6-12.3-12.7-19.3-18.1c-1.4-1.1-1.4-1.2,0.2-1.9
			c12.5-5.2,25.1-10.5,37.6-15.7C299.9,105.3,300.4,104.9,300.9,105.1L300.9,105.1z"/>
		<path class="st0" d="M255.5,118.5c-0.6-0.4-1.1-0.7-1.6-1.1c-7.9-5.4-16.4-9.9-25.2-13.5c-0.4-0.2-0.8-0.3-1.2-0.5
			c-0.4-0.2-0.4-0.5-0.1-0.9c0.3-0.3,0.7-0.5,1-0.8c10.3-8.2,20.6-16.3,30.9-24.5c0.3-0.2,0.6-0.5,0.9-0.7c0.2-0.2,0.5-0.5,0.8-0.4
			c0.4,0.2,0.2,0.6,0.2,1c-0.1,1.3-0.3,2.5-0.4,3.8c-0.7,5.5-1.4,11-2.2,16.5c-0.5,4.2-1.1,8.3-1.7,12.5c-0.3,2.3-0.6,4.6-0.9,6.9
			C255.9,117.3,255.9,117.9,255.5,118.5L255.5,118.5z"/>
		<path class="st0" d="M102.6,112c-0.3,0.6-0.8,0.7-1.2,1c-8.3,5-16.1,10.7-23.4,17.1c-0.3,0.3-0.6,0.6-1,0.8
			c-0.2,0.2-0.5,0.1-0.6-0.2c-0.4-1.3-0.8-2.7-1.1-4c-3.1-11.7-6.1-23.4-9.2-35.1c-0.2-0.6-0.2-1.3-0.4-2c0.3,0.1,0.5,0.1,0.7,0.2
			C67.8,90.4,101.6,111.2,102.6,112L102.6,112z"/>
		<path class="st0" d="M219.1,99.4c0.1,0.6-0.2,0.8-0.7,0.7c-0.5-0.1-1.1-0.3-1.6-0.5c-6.5-2-13.1-3.7-19.9-4.7
			c-2.7-0.4-5.4-0.9-8.1-1.1c-0.1,0-0.2,0-0.4,0c-0.6-0.1-0.7-0.4-0.4-0.9c0.2-0.4,0.5-0.7,0.7-1.1c7.5-10.8,14.9-21.5,22.4-32.2
			c0.2-0.3,0.5-0.7,0.8-1c0.2-0.2,0.5-0.1,0.6,0.1c0.3,1.4,0.5,2.9,0.8,4.3c1.1,7.2,2.3,14.3,3.4,21.4c0.8,4.9,1.6,9.7,2.4,14.6
			C219.1,99.2,219.1,99.3,219.1,99.4L219.1,99.4z"/>
		<path class="st0" d="M160.3,55.3c1,2.1,1.9,3.9,2.8,5.8c4.3,8.8,8.5,17.5,12.8,26.3c0.8,1.6,1.6,3.3,2.4,4.9
			c0.2,0.5,0,0.8-0.5,0.8c-0.5,0-1,0-1.5,0c-2.9,0-5.9,0-8.8,0.1c-2.6,0.1-5.2,0.4-7.8,0.6c-3.7,0.3-7.4,0.8-11,1.5
			c-0.2,0-0.4,0-0.6,0c-0.7,0-0.9-0.3-0.7-0.9c0.7-2.3,1.5-4.6,2.2-6.9c3.3-10.1,6.6-20.2,9.8-30.2C159.6,56.7,159.7,56,160.3,55.3
			L160.3,55.3z"/>
		<path class="st0" d="M310,188.1c2.1,0.1,4.1,0.6,6.1,1c6.5,1.1,13,2.4,19.6,3.5c4.2,0.8,8.4,1.5,12.6,2.3c0.5,0.1,0.9,0.2,1.4,0.4
			c0.1,0.5-0.3,0.6-0.6,0.8c-3.5,2.5-6.9,5-10.4,7.5c-6.6,4.8-13.2,9.5-19.9,14.3c-0.5,0.4-1.1,0.8-1.7,1.1
			c-0.4,0.2-0.7,0.1-0.8-0.4c-0.1-1-0.3-2.1-0.4-3.1c-0.9-7.1-2.3-14.2-4.2-21.1c-0.5-1.8-1.1-3.5-1.6-5.2
			C310,188.7,310,188.4,310,188.1L310,188.1L310,188.1z"/>
		<path class="st0" d="M110.2,107.9c-0.2-0.3-0.2-0.6-0.2-0.9c0.5-13.3,1-26.7,1.4-40c0-0.1,0.1-0.2,0.2-0.3c0.4,0,0.6,0.4,0.8,0.6
			C121,76.9,129.5,86.4,138,96c1.2,1.3,1.1,1.4-0.6,1.9c-8.4,2.2-16.5,5.2-24.3,8.9c-0.7,0.3-1.3,0.6-2,1
			C110.8,107.8,110.5,108,110.2,107.9L110.2,107.9z"/>
		<path class="st0" d="M355.1,250.5c-1.1,0.6-2,0.7-2.9,1c-11.9,3-23.7,6-35.5,9c-0.5,0.1-0.9,0.2-1.4,0.3c-0.7,0.1-0.9-0.1-0.8-0.7
			c0.2-1.4,0.5-2.9,0.8-4.3c0.7-4.1,1.2-8.2,1.5-12.3c0.2-3.2,0.2-6.3,0.2-9.5c0-0.3,0-0.6,0-0.9c0-1,0.2-1.1,1.1-0.7
			c2.1,1,4.2,2,6.2,3c6,2.9,12,5.9,18,8.8c3.6,1.8,7.2,3.5,10.8,5.3C353.7,249.8,354.3,250.1,355.1,250.5L355.1,250.5z"/>
		<path class="st0" d="M341.9,301.1c-0.7,0.4-1.1,0.2-1.6,0.2c-4.3-0.5-8.6-1.1-12.9-1.6c-4.4-0.5-8.7-1.1-13-1.6
			c-3.7-0.5-7.4-0.9-11-1.4c-0.8-0.1-0.9-0.3-0.5-1.1c0.8-1.4,1.6-2.8,2.3-4.1c2.8-5.1,5-10.4,6.7-16c0.6-1.9,0.6-1.9,2.1-0.6
			c9,8.4,17.9,16.7,26.8,25C341.1,300.3,341.4,300.6,341.9,301.1L341.9,301.1z"/>
	</g>
	<g>
		<path class="st1" d="M206.1,330.7c7,8.1,15.8,13.3,26,16.2c2.7,0.8,5.4,1.3,8.2,1.7c0.3,0,0.6,0.1,0.9,0.1
			c3.4,0.1,6.8,0.3,10.2,0.5c2.4,0.1,4.7,0.4,7.1,0.6c2.8,0.3,5.6,0.5,8.4,0.8c4,0.4,8,1,11.9,1.7c4.4,0.8,8.9,1.6,13.3,2.4
			c0.2,0,0.5,0.1,0.7,0.1c0.2,0,0.4-0.3,0.3-0.5c-0.2-0.4-0.5-0.8-0.8-1.2c-9.2-12.5-18.3-25-27.5-37.4c-9.1-12.3-18.1-24.7-27.2-37
			c-0.3-0.5-0.8-0.9-1-1.5c0.8,0,1.2,0.4,1.8,0.7c6.3,3.1,12.5,6.6,18.6,10.2c0.6,0.3,1.2,0.7,1.8,1c0.5,0.2,0.8,0.2,1-0.3
			c0.3-0.6,0.6-1.2,0.8-1.8c1.3-3.5,2.2-7.1,2.9-10.8c0.7-4,1.2-7.9,1.5-12c0.5-5.6,0.8-11.3,0.6-17c0-1.5-0.2-3-0.4-4.6
			c-0.9-7.6-2.4-15.1-4.7-22.5c-3.9-12.4-9.7-23.6-18.2-33.5c-7.6-8.9-16.7-15.9-27.1-21.4c-8.4-4.4-17.3-7.5-26.6-9.5
			c-5.1-1.1-10.3-1.7-15.6-1.7c-2.2,0-4.4,0-6.6,0c-5.2,0.1-10.4,0.8-15.6,1.9c-10.2,2.1-19.8,6-28.6,11.8
			c-7.4,4.8-13.9,10.7-19.6,17.4c-9.4,11.1-16.4,23.6-21.1,37.4c0,0.1-0.1,0.2-0.1,0.4c-0.1,0.6-0.8,1.4-0.2,1.9
			c0.4,0.4,1.1-0.2,1.7-0.4c2-0.6,4.1-0.9,6.1-1.1c5.2-0.6,10.4-0.7,15.7-0.9c9.4-0.4,18.8-0.2,28.2-0.1c5.3,0.1,10.6,0.1,15.9,0.4
			c3.5,0.1,7.1,0.2,10.6,0.3c1.8,0.1,3.5,0.2,5.3,0.3c0.6,0,0.8,0.3,0.6,0.8c-0.6,2.7-1.5,5.3-2.6,7.8c-4.2,10.4-10.8,19-19.7,25.9
			c-6.1,4.7-12.9,8.3-20.1,11c-6.9,2.6-14.1,4.4-21.4,5.4c-2.4,0.4-4.8,0.5-7.3,0.8c-1.3,0.1-1.4,0.1-1.7,1.4
			c-0.8,3.2-1.6,6.4-2.4,9.6c-2.9,11.6-5.8,23.1-8.8,34.7c-2.8,11.1-5.6,22.2-8.4,33.3c-2.9,11.5-5.8,22.9-8.6,34.4
			c-0.2,0.7-0.5,1.4-0.3,2.1c0.8,0.5,1.5-0.1,2.2-0.4c18.6-6.4,37.2-12.7,55.8-19.1c12-4.1,24.1-8.3,36.1-12.4
			c5.1-1.8,9.4-4.7,13.3-8.5c4.3-4.2,7.9-9,11-14.1c4.8-7.7,8.6-15.9,11.8-24.3c0.2-0.5,0.4-1,0.7-1.7c0.6,1.5,0.7,3,0.9,4.4
			c0.6,4.4,0.9,8.7,1,13.1c0.1,4.1-0.1,8.3-0.5,12.4c-0.5,5.4-1.6,10.7-3.4,15.9c-1.9,5.5-4.8,10.5-8.7,14.9
			c-0.8,0.8-1.6,1.3-2.8,1.5c-10.9,1.9-21.4,5-32,8.3c-13.7,4.3-27.3,9.1-40.8,14c-17.7,6.5-35.2,13.3-52.7,20.3
			c-6.5,2.6-12.9,5.2-19.3,7.9c-0.6,0.2-1.3,0.3-1.7,1h-0.4c1.8-7.3,3.7-14.5,5.5-21.8c2.9-11.5,5.8-22.9,8.7-34.4
			c2.4-9.4,4.7-18.8,7.1-28.2c2.8-11.2,5.7-22.4,8.5-33.6c2.4-9.4,4.8-18.9,7.2-28.3c1.2-4.8,2.5-9.5,3.6-14.3
			c0.5-2,0.8-1.7,2.2-1.7c10-0.1,19.8-1.3,29.5-3.7c6.1-1.5,11.9-3.6,17.3-6.7c3.9-2.2,7.5-4.8,10.6-8c1.5-1.6,2.8-3.2,3.9-5.1
			c0.2-0.4,0.4-0.9,0.6-1.3c0.1-0.3-0.1-0.6-0.4-0.7c-0.4,0-0.9-0.1-1.3,0c-3.1,0.1-6.2,0-9.3,0.2c-5,0.3-10,0.1-15,0.4
			c-4.8,0.3-9.5,0.1-14.2,0.4c-2.9,0.2-5.8,0.1-8.8,0.2c-4,0.2-7.9,0.9-11.6,2.3c-4.5,1.7-7.9,4.7-10.3,8.9
			c-2.3,4.1-4.3,8.5-6.1,12.9c-4.3,10.4-8.2,20.9-11.6,31.5c-0.1,0.3-0.2,0.6-0.3,0.9c-0.1,0.4-0.4,0.8-0.8,0.9
			c-0.3,0.1-0.6,0.2-0.8,0.3c-5.5,2.1-11,4.2-16.5,6.4c-0.4,0.2-0.9,0.3-1.5,0.5c0.1-0.8,0.3-1.4,0.5-2c4.9-15.6,10.4-31,16.2-46.2
			c7-18.3,14.7-36.4,23-54.1c1.9-4,3.8-7.9,5.7-11.9c2.6-5.4,5.9-10.2,9.6-14.8c4.5-5.5,9.4-10.5,14.6-15.4c1.9-1.8,1.6-1.6,0-3.1
			c-4.2-4-8.5-7.9-12.7-11.9c-1.4-1.3-1.4-1.3,0.1-2.6c8.6-7.3,17.9-13.6,27.8-18.8c9.4-4.9,19.1-8.8,29.4-11.4
			c5-1.3,10.1-2.2,15.2-2.9c4.4-0.5,8.7-0.8,13.1-0.8c4.7,0,9.4,0.2,14.1,0.8c7.6,0.8,15.1,2.2,22.4,4.4c20.1,5.8,37.9,15.8,53.4,30
			c12.1,11.1,21.9,24,29.3,38.7c5.4,10.7,9.2,22,11.5,33.8c1,5.1,1.6,10.2,2,15.4c0.5,6.3,0.5,12.7,0.2,19
			c-0.2,3.9-0.7,7.9-1.3,11.8c-1.1,6.9-2.7,13.7-4.8,20.4c-1.3,4-2.8,7.9-4.5,11.8c-0.2,0.4-0.2,0.8-0.6,1.1
			c-0.2-0.2-0.1-0.4-0.1-0.6c0.7-5,1.1-9.9,1.5-14.9c0.7-8.5,0.8-16.9,0.6-25.4c-0.1-4.3-0.5-8.6-0.9-12.9
			c-0.5-4.5-1.2-9.1-2.1-13.5c-1.7-8.3-4.2-16.4-7.5-24.2c-4.8-11.8-11.2-22.6-19.4-32.3c-9.5-11.2-20.8-20.1-33.9-26.9
			c-7.1-3.7-14.5-6.7-22.2-8.9c-4.6-1.4-9.3-2.4-14.1-3.2c-3.6-0.6-7.1-1-10.7-1.3c-3-0.3-6.1-0.2-9.1-0.2
			c-8.4,0.1-16.5,1.5-24.3,4.4c-3.8,1.4-7.4,3.2-10.7,5.6c-0.5,0.4-1.2,0.6-1.2,1.4c0.6,0.3,1.2-0.1,1.7-0.3
			c4.6-1.4,9.3-2.4,14.1-2.9c3.8-0.4,7.6-0.7,11.5-0.6c3.4,0.1,6.7,0.3,10,0.6c4.4,0.4,8.8,1.1,13.2,1.9c20.1,4,38.2,12.4,53.5,26.2
			c9.4,8.5,16.9,18.3,22.9,29.5c5.7,10.7,9.6,21.9,12.1,33.8c1,4.8,1.7,9.6,2.3,14.4c0.5,4.9,0.8,9.8,0.6,14.8
			c-0.1,2.8-0.3,5.6-0.6,8.4c-0.2,2.9-0.5,5.8-0.9,8.7c-0.7,5-1.6,9.9-2.7,14.7c-0.8,3.6-1.8,7.2-2.8,10.8c-0.1,0.3-0.2,0.6-0.3,0.9
			c-0.2,0.6-0.1,1.2,0.3,1.7c0.5,0.7,1,1.4,1.5,2.1c19.2,26.7,38.4,53.5,57.6,80.2c0.3,0.4,0.7,0.7,0.7,1.2c-0.5,0.2-0.8,0-1.2-0.2
			c-6.9-2.4-13.8-4.5-20.7-6.5c-10.3-2.9-20.6-5.4-31.1-7.5c-5.9-1.2-11.9-2.2-17.8-3c-3.7-0.5-7.5-0.9-11.3-1.2
			c-4-0.3-8-0.6-12-0.8c-3.6-0.2-7.2-0.2-10.8-0.1c-2.1,0-4.1,0.2-6.2,0.3c-0.4,0-0.7,0-1.1,0c-0.5,0-0.8-0.2-1-0.6
			c-0.2-0.4-0.4-0.9-0.6-1.3c-5-10.6-10-21.1-15-31.7c-0.3-0.7-0.8-1.4-0.9-2.2L206.1,330.7L206.1,330.7z"/>
		<path class="st1" d="M174.6,0c0.3,0.4,0.7,0.4,1.1,0.4c3.1,0.1,6.2,0.2,9.3,0.4c2.4,0.1,4.7,0.4,7.1,0.6c2.6,0.2,5.2,0.5,7.8,0.8
			c4.9,0.6,9.8,1.4,14.6,2.4c0.9,0.2,1.9,0.4,2.9,0.6c0.4,0.1,0.8,0.2,1.2,0.5c0,0.7-0.4,1.2-0.8,1.8c-3.4,6.1-6.8,12.3-10.1,18.4
			c-6.8,12.4-13.7,24.8-20.5,37.3c-0.3,0.6-0.7,1.2-1,1.7c-0.1,0.2-0.5,0.2-0.6-0.1c-0.3-0.7-0.6-1.3-0.9-2
			c-5-12.5-10.1-25-15.1-37.4c-3.1-7.6-6.1-15.1-9.1-22.7c-0.1-0.3-0.3-0.7-0.4-1c-0.4-1.2-0.4-1.3,0.8-1.3c0.5,0,1,0,1.5-0.1
			c0.3,0,0.4-0.2,0.6-0.4L174.6,0L174.6,0z"/>
		<path class="st1" d="M393,235.2c-0.4,0.2-0.4,0.6-0.4,0.9c0,0.9-0.1,1.7,0,2.6c0.1,3.6-0.4,7.2-0.8,10.7c-0.3,2.2,0,2.3-2.2,1.3
			c-16.1-7-32.3-14-48.5-20.9c-3-1.3-6-2.6-9-3.9c-0.4-0.2-0.9-0.4-1.3-0.6c0-0.5,0.3-0.5,0.5-0.7c6.4-3.3,12.8-6.6,19.2-9.8
			c8.8-4.5,17.6-9,26.3-13.5c4.2-2.1,8.4-4.3,12.5-6.4c1.6-0.8,1.6-0.8,1.9,1c0.6,4.4,1,8.8,1.3,13.3c0.2,2.2,0.1,4.4,0.1,6.6
			c0,0.5-0.1,1.1,0.4,1.5L393,235.2L393,235.2z"/>
		<path class="st1" d="M302.8,136.4c-0.1-0.4,0.2-0.7,0.4-1c9-15.8,18.1-31.5,27.1-47.2c2-3.5,4.1-7.1,6.1-10.6
			c0.2-0.4,0.4-0.7,0.6-1.1c0.3-0.4,0.6-0.5,0.9-0.1c0.8,1,1.6,2,2.5,2.9c9.9,12,18.7,24.7,26.1,38.3c1.1,2,2,4,3,6
			c0.2,0.4,0.3,0.8,0.5,1.2c0.1,0.2,0,0.4-0.2,0.4c-0.3,0.1-0.7,0.3-1,0.3c-4.6,0.8-9.1,1.5-13.7,2.3c-4.9,0.8-9.7,1.6-14.6,2.4
			c-4.7,0.8-9.5,1.6-14.2,2.4c-4.7,0.8-9.5,1.6-14.2,2.4c-2.9,0.5-5.9,1-8.8,1.4C303,136.6,302.9,136.5,302.8,136.4L302.8,136.4z"/>
		<path class="st1" d="M149.2,1.1c0.3,0,0.8-0.1,1.4-0.1c0.5,0,0.7,0.2,0.6,0.6c-0.3,1.7-0.6,3.3-0.9,5c-1.4,7.2-2.9,14.3-4.3,21.5
			s-2.8,14.3-4.2,21.5c-1.1,5.4-2.1,10.8-3.2,16.1c-0.1,0.4-0.2,0.8-0.3,1.2c-0.1,0.2,0,0.6-0.4,0.5c-0.2,0-0.4-0.2-0.6-0.4
			c-1.3-1.5-2.5-3-3.7-4.5C122.2,49,110.9,35.2,99.5,21.4c-1.6-1.9-3.1-3.8-4.7-5.6c-0.3-0.4-0.7-0.9-1-1.3
			c-0.3-0.4-0.2-0.7,0.3-0.9c2.1-0.7,4.1-1.5,6.2-2.1c9.6-3.1,19.4-5.7,29.3-7.6c4.1-0.8,8.3-1.5,12.4-2
			C144.4,1.6,146.6,1.3,149.2,1.1L149.2,1.1z"/>
		<path class="st1" d="M272.8,101.2c0.8-3.4,1.5-6.8,2.2-10.1c2.3-10.2,4.6-20.4,6.9-30.6c1.5-6.7,3-13.4,4.6-20.1
			c0.4-1.8,0.8-3.7,1.2-5.5c0.2-1,0.4-1.1,1.4-0.5c0.2,0.1,0.4,0.3,0.6,0.4c1.8,1.2,3.6,2.3,5.3,3.5c10.4,7.1,20.3,14.8,29.4,23.4
			c2.9,2.8,5.8,5.6,8.5,8.6c0.2,0.3,0.5,0.6,0.7,0.9c0.1,0.2,0,0.4-0.1,0.5c-0.5,0.3-1,0.5-1.4,0.8c-13.5,6.7-26.9,13.5-40.4,20.2
			c-5.8,2.9-11.6,5.8-17.4,8.6c-0.3,0.2-0.6,0.3-1,0.5c-0.1,0.1-0.4,0.1-0.5,0C272.8,101.4,272.8,101.2,272.8,101.2L272.8,101.2z"/>
		<path class="st1" d="M373.3,130.6c0.5,0.3,0.6,0.8,0.7,1.1c5.3,12.6,9.7,25.6,12.9,39c1.2,5.1,2.2,10.2,3,15.4c0,0.2,0,0.4,0,0.6
			c0,0.2-0.1,0.5-0.4,0.5c-0.3,0-0.6,0-0.9,0c-3.8-0.5-7.6-1.1-11.4-1.6c-3.1-0.4-6.3-0.8-9.4-1.3c-3.1-0.4-6.3-0.9-9.4-1.3
			c-3.1-0.4-6.3-0.8-9.4-1.3c-3-0.4-6-0.8-9-1.2c-3.1-0.4-6.3-0.9-9.4-1.3c-2.8-0.4-5.5-0.8-8.3-1.1c0-0.2,0-0.4,0.1-0.4
			C324,175.8,372.2,131.4,373.3,130.6L373.3,130.6z"/>
		<path class="st1" d="M227.2,7.4c0.7,0.2,1.6,0.4,2.5,0.7c12.7,3.7,25.1,8.2,37.1,13.8c4.3,2,8.5,4.2,12.6,6.6
			c0.4,0.2,0.8,0.5,1.2,0.8c0.4,0.2,0.4,0.6,0.1,0.9c-0.2,0.3-0.5,0.5-0.8,0.8c-4,3.8-8,7.7-12,11.5c-4.1,3.9-8.2,7.8-12.3,11.8
			c-4.8,4.6-9.5,9.1-14.2,13.7c-2.6,2.5-5.3,5.1-7.9,7.6c-0.3,0.2-0.5,0.5-0.8,0.8c-0.2,0.1-0.4,0.3-0.7,0.2c-0.2,0-0.3-0.3-0.3-0.6
			c-0.1-1.5-0.2-2.9-0.4-4.4c-0.3-3.8-0.5-7.5-0.9-11.3c-0.3-3.7-0.7-7.4-1-11.1c-0.3-3.7-0.5-7.4-0.8-11.1s-0.6-7.4-1-11.1
			c-0.1-1.6-0.2-3.3-0.4-4.9c-0.4-3.8-0.6-7.5-0.9-11.3c-0.1-0.9-0.2-1.8-0.3-2.7C226.3,7.5,226.5,7.3,227.2,7.4L227.2,7.4z"/>
		<path class="st1" d="M323.3,270c1.4-0.6,2.7-0.7,4-0.9c6.2-1.1,12.5-2,18.7-3.1c6.2-1,12.5-2.1,18.7-3.1c4.8-0.8,9.6-1.5,14.4-2.3
			c3.2-0.5,6.4-1.1,9.5-1.6c0.2,0,0.4-0.1,0.5-0.1c0.8-0.1,1,0.1,0.9,0.9c-0.2,1.1-0.4,2.3-0.6,3.4c-2.8,13.9-6.6,27.5-11.9,40.6
			c-1.1,2.7-2.3,5.4-3.5,8c-0.2,0.4-0.4,0.8-0.6,1.1c-0.2,0.3-0.4,0.4-0.8,0.2c-0.3-0.2-0.6-0.5-0.9-0.7
			c-11.5-10-23.1-20.1-34.6-30.1c-4.2-3.7-8.5-7.4-12.7-11.1C324.3,270.8,323.9,270.5,323.3,270L323.3,270z"/>
		<path class="st1" d="M92.5,84.8c-0.7-0.1-1.1-0.5-1.5-0.8C73.9,71.4,56.8,58.7,39.7,46.1c-0.5-0.4-1-0.7-1.4-1.1
			c-0.2-0.2-0.2-0.4,0-0.6c0.2-0.2,0.4-0.3,0.6-0.5c12.8-9.1,26-17.4,40.3-23.9c1.8-0.8,3.6-1.5,5.4-2.3c0.3-0.1,0.6-0.2,0.8-0.3
			c0.7-0.2,0.9-0.1,1.1,0.6c0.1,0.4,0.1,0.8,0.2,1.3c0.4,3.8,0.7,7.6,1.1,11.5c0.3,3.3,0.6,6.5,0.8,9.8c0.3,3.3,0.7,6.5,1,9.8
			c0.3,3.2,0.6,6.4,0.8,9.7c0.3,3.3,0.6,6.7,1,10c0.1,1.3,0.2,2.6,0.3,3.8c0.3,3.2,0.6,6.3,0.9,9.5C92.5,83.7,92.5,84.2,92.5,84.8
			L92.5,84.8z"/>
		<path class="st1" d="M57.6,118.5c-0.7-0.2-1.2-0.6-1.7-0.9C37.7,106,19.5,94.4,1.3,82.9c-1.6-1-1.7-0.8-0.4-2.5
			c3.9-4.9,8.1-9.6,12.5-14c5.4-5.4,10.9-10.6,16.9-15.4c0.5-0.4,1-0.7,1.4-1.1c0.6,0.2,0.7,0.7,0.8,1.2c2,5.2,3.9,10.4,5.8,15.6
			C44.2,82,50,97.5,55.8,113c0.6,1.5,1.1,3.1,1.7,4.6C57.6,117.9,57.8,118.1,57.6,118.5L57.6,118.5z"/>
		<path class="st1" d="M301.5,306c1.1-0.2,1.9,0.1,2.8,0.3c9,1.6,18.1,3.3,27.1,5c8.3,1.5,16.5,3,24.8,4.5c4.6,0.8,9.2,1.7,13.8,2.5
			c0.7,0.1,0.9,0.4,0.5,1c-0.9,1.9-1.9,3.8-2.9,5.7c-5.3,10-11.1,19.6-17.9,28.7c-1.6,2.1-1.3,2.2-3.2,0.2
			c-6.4-6.8-12.9-13.6-19.3-20.5c-7.2-7.7-14.5-15.4-21.7-23c-1.2-1.2-2.4-2.5-3.5-3.7C301.9,306.6,301.8,306.4,301.5,306L301.5,306
			z"/>
		<path class="st1" d="M310,188L310,188L310,188z"/>
		<polygon class="st1" points="206.1,330.7 206,330.7 206.1,330.7 		"/>
	</g>
</g>
<g>
	<path class="st1" d="M448.8,302.1l-11.9-45.4l4.7-0.8c2.5,3,11.4,13.5,26.7,19.8c11.7,4.7,23,7.1,36.4,7.1c23.6,0,45-14,45-35.2
		c0-45.1-106.1-37.1-106.1-100.6c0-35.8,33.6-52.5,70-52.5c11.7,0,23.3,1.9,35.5,4.7c2.5,0.6,6.1,0.6,7.8-2.5h3.6l11.1,41h-5.5
		c0,0-0.6-0.8-1.7-2.2c-6.4-7.4-16.9-14-22.5-16.2c-7.5-3-18.3-4.4-25-4.4c-18.6,0-40.5,8-40.5,28.9c0,37.9,104.1,37.1,106.6,95.7
		c1.4,32.2-26.1,65.2-81.6,65.2c-14.4,0-28.9-2.2-42.5-5.5c-5.3-1.4-6.9,3-6.9,3L448.8,302.1L448.8,302.1z"/>
	<path class="st1" d="M569.7,343.3c44.7-15.2,55.4-37.6,55.4-81V119.1c0-4.4-1.4-7.2-5.3-9.1l-13.8-6.9v-5.2h70.6v5.2l-13.8,6.9
		c-3.9,1.9-5.3,4.7-5.3,9.1v143.5c0,28.8-7.9,48.1-19.1,60.8c-21.7,24.9-68.6,25.4-68.6,25.4L569.7,343.3L569.7,343.3z"/>
	<path class="st1" d="M706.5,302.1l-11.9-45.4l4.7-0.8c2.5,3,11.3,13.5,26.6,19.8c11.6,4.7,23,7.1,36.3,7.1
		c23.5,0,44.9-14,44.9-35.2c0-45.1-105.8-37.1-105.8-100.6c0-35.7,33.5-52.5,69.8-52.5c11.6,0,23.3,1.9,35.5,4.7
		c2.5,0.6,6.1,0.6,7.8-2.5h3.6l11.1,41h-5.5c0,0-0.5-0.8-1.7-2.2c-6.4-7.4-16.9-14-22.4-16.2c-7.5-3-18.3-4.4-24.9-4.4
		c-18.5,0-40.4,8-40.4,28.9c0,37.9,103.8,37.1,106.3,95.7c1.4,32.2-26,65.2-81.4,65.2c-14.4,0-28.8-2.2-42.4-5.5
		c-5.3-1.4-6.9,3-6.9,3L706.5,302.1L706.5,302.1z"/>
	<path class="st1" d="M950.6,304.6c-23.9,0-46.7-7.2-62.1-24c-14.9-16.3-16.9-37.6-16.9-61.9v-99.5c0-4.4-1.4-7.2-5.3-9.1l-13.8-6.9
		v-5.2H923v5.2l-13.8,6.9c-3.9,1.9-5.3,4.7-5.3,9.1v101.7c0,39.8,14.9,63.6,48.1,63.6h1.7c33.2,0,48.1-23.8,48.1-63.6V117.8
		c0-3.3-1.7-6.4-4.5-7.7l-14.3-7.5v-4.7h68.6v4.7l-14.3,7.5c-3.1,1.7-4.5,4.2-4.5,8.6v100.1c0,24.3-2,45.6-16.9,61.9
		c-15.5,16.9-38.2,24-62.1,24H950.6L950.6,304.6z"/>
</g>
<g>
	<path class="st1" d="M1097.8,203.8c0-48.3,35.5-82.9,85.3-82.9s85.3,34.6,85.3,82.9s-35.5,82.9-85.3,82.9
		S1097.8,252.1,1097.8,203.8L1097.8,203.8z M1249.3,203.8c0-38.1-28.1-65.9-66.2-65.9s-66.2,27.9-66.2,65.9s28.1,65.9,66.2,65.9
		S1249.3,241.9,1249.3,203.8L1249.3,203.8z"/>
	<path class="st1" d="M1392.5,204.1v80.1h-18.7V206c0-23.5-10.9-33.1-29.6-33.1c-21.1,0-35.9,15-35.9,38.7v72.5h-18.7V158.8h3.7
		c9.6,0,14.1,4.6,14.8,15.9c8.9-11.8,22.2-18.3,39.2-18.3C1375.5,156.4,1392.5,174.5,1392.5,204.1L1392.5,204.1z"/>
	<path class="st1" d="M1416.6,121.2h8.1c8.3,0,10.7,2.4,10.7,11.3v151.7h-18.7L1416.6,121.2L1416.6,121.2z"/>
	<path class="st1" d="M1461.9,125.9v-5h19.4v23.7C1468,144.6,1461.9,139.2,1461.9,125.9L1461.9,125.9z M1462.5,158.8h18.7v125.3
		h-18.7V158.8L1462.5,158.8z"/>
	<path class="st1" d="M1609.8,204.1v80.1h-18.7V206c0-23.5-10.9-33.1-29.6-33.1c-21.1,0-35.9,15-35.9,38.7v72.5h-18.7V158.8h3.7
		c9.6,0,14.1,4.6,14.8,15.9c8.9-11.8,22.2-18.3,39.2-18.3C1592.9,156.4,1609.9,174.5,1609.8,204.1L1609.8,204.1z"/>
	<path class="st1" d="M1757.4,228.6H1649c3.1,24.1,21.1,41.1,44.8,41.1c15.7,0,28.7-7.4,36.8-19.1c2.6-3.9,5.2-5.4,10.7-5.4h12.4
		c-8.7,24.6-31.6,41.1-59.8,41.1c-36.8,0-64-27.4-64-64.8s27.2-64.8,64-64.8s64,27.4,64,64.8
		C1757.8,224.5,1757.6,226.9,1757.4,228.6L1757.4,228.6z M1649.2,212.1h89.2c-3.9-23.1-21.5-38.9-44.6-38.9S1653.1,189,1649.2,212.1
		L1649.2,212.1z"/>
</g>
</svg>
