<svg style="fill:#e5a823" xmlns="http://www.w3.org/2000/svg" viewBox="0 0 113 112" xml:space="preserve"><path d="m84.1 57-.3.3-4.1 4.1-.3.3.3.3 1.5-.5h.1c.3-.1.6 0 .8.2l.1.1 7 7.1c2.6 2.6 3 5.2 1.1 7.3l-.3.3c-2.1 2.1-4.7 1.8-7.4-1L77 69.9l-1.5-1.5c-.2-.2-.3-.5-.2-.8v-.1l.5-1.5-.3-.3-.5.2-4.1 4.2-.3.3.3.3 1.5-.5c.3-.1.7 0 .9.3l7 7c1.5 1.5 2.8 2.9 5.1 3 1 0 2-.2 2.9-.7l.4-.2.3-.2c2-1.1 3.6-2.8 4.6-4.9v-.1c.4-.8.6-1.7.6-2.7-.1-2.3-1.5-3.6-3-5.1l-7-7.1c-.3-.2-.4-.6-.3-.9v-.1l.5-1.5h-.3zM58.4 82.5l-.2.2-1.4 1.4-1.6 1.6-1.4 1.4-.2.2.3.3 1.5-.5h.1c.3-.1.6 0 .9.3l9.8 9.8c2.9 3 3.8 5.2 1.8 9.3l.4.4s3.2-3.2 2.9-6.3c-.1-1.6-1-3.4-2.9-5.5l-9.8-9.8c-.3-.2-.4-.6-.3-.9v-.1l.5-1.5-.4-.3zm3.3 16.1c-4.2-3.9-10.8 3.5-13.6.7-1.4-1.4-.5-3.5.7-4.7.6-.6 1.2-1 2-1.4.8-.3 1.8-.5 2.7-.4h.2l.1-.1.2-.2-3.5-2-.3.3c.1.3-.4.6-.4.6-.8.5-1.6 1-2.3 1.7-2.8 2.5-4.2 6.2-1.6 8.8 4.4 4.4 10.7-3.6 13.9-.3 1.5 1.5.7 4.2-.5 5.4-.9.8-1.9 1.5-3 2-1 .4-2 .5-3.1.5l-.3.4 3.9 2.2.2-.2c-.1-.3 0-.5.3-.7 1.2-.7 2.3-1.5 3.3-2.5 3.6-3.7 3.4-8 1.1-10.1zM79.2 81c-4.2-3.9-10.8 3.5-13.6.7-1.4-1.4-.5-3.5.7-4.7.6-.6 1.2-1 2-1.4.8-.3 1.8-.5 2.7-.4h.2l.2-.2.2-.2-3.5-2-.2.2c.1.3-.4.6-.4.6-.8.5-1.6 1.1-2.3 1.7-2.8 2.5-4.2 6.2-1.6 8.8 4.4 4.4 10.7-3.6 13.9-.3 1.5 1.5.7 4.2-.5 5.4-.9.9-1.9 1.5-3 2-1 .4-2 .6-3.1.5l-.3.4 3.8 2.2.2-.2c-.1-.3 0-.5.3-.7 1.2-.7 2.3-1.5 3.3-2.5 3.6-3.5 3.3-7.8 1-9.9z"/><path d="m84.1 57-.3.3-4.1 4.1-.3.3.3.3 1.5-.5h.1c.3-.1.6 0 .8.2l.1.1 7 7.1c2.6 2.6 3 5.2 1.1 7.3l-.3.3c-2.1 2.1-4.7 1.8-7.4-1L77 69.9l-1.5-1.5c-.2-.2-.3-.5-.2-.8v-.1l.5-1.5-.3-.3-.5.2-4.1 4.2-.3.3.3.3 1.5-.5c.3-.1.7 0 .9.3l7 7c1.5 1.5 2.8 2.9 5.1 3 1 0 2-.2 2.9-.7l.4-.2.3-.2c2-1.1 3.6-2.8 4.6-4.9v-.1c.4-.8.6-1.7.6-2.7-.1-2.3-1.5-3.6-3-5.1l-7-7.1c-.3-.2-.4-.6-.3-.9v-.1l.5-1.5h-.3zM58.4 82.5l-.2.2-1.4 1.4-1.6 1.6-1.4 1.4-.2.2.3.3 1.5-.5h.1c.3-.1.6 0 .9.3l9.8 9.8c2.9 3 3.8 5.2 1.8 9.3l.4.4s3.2-3.2 2.9-6.3c-.1-1.6-1-3.4-2.9-5.5l-9.8-9.8c-.3-.2-.4-.6-.3-.9v-.1l.5-1.5-.4-.3zm3.3 16.1c-4.2-3.9-10.8 3.5-13.6.7-1.4-1.4-.5-3.5.7-4.7.6-.6 1.2-1 2-1.4.8-.3 1.8-.5 2.7-.4h.2l.1-.1.2-.2-3.5-2-.3.3c.1.3-.4.6-.4.6-.8.5-1.6 1-2.3 1.7-2.8 2.5-4.2 6.2-1.6 8.8 4.4 4.4 10.7-3.6 13.9-.3 1.5 1.5.7 4.2-.5 5.4-.9.8-1.9 1.5-3 2-1 .4-2 .5-3.1.5l-.3.4 3.9 2.2.2-.2c-.1-.3 0-.5.3-.7 1.2-.7 2.3-1.5 3.3-2.5 3.6-3.7 3.4-8 1.1-10.1zM79.2 81c-4.2-3.9-10.8 3.5-13.6.7-1.4-1.4-.5-3.5.7-4.7.6-.6 1.2-1 2-1.4.8-.3 1.8-.5 2.7-.4h.2l.2-.2.2-.2-3.5-2-.2.2c.1.3-.4.6-.4.6-.8.5-1.6 1.1-2.3 1.7-2.8 2.5-4.2 6.2-1.6 8.8 4.4 4.4 10.7-3.6 13.9-.3 1.5 1.5.7 4.2-.5 5.4-.9.9-1.9 1.5-3 2-1 .4-2 .6-3.1.5l-.3.4 3.8 2.2.2-.2c-.1-.3 0-.5.3-.7 1.2-.7 2.3-1.5 3.3-2.5 3.6-3.5 3.3-7.8 1-9.9zM57.9 28.7l.3.3 4.1 4.1.3.3.3-.3-.5-1.5v-.1c-.1-.3 0-.6.2-.8h.1l7.1-7.1c2.6-2.6 5.2-3 7.3-1.1l.3.3c2.1 2.1 1.8 4.7-1 7.4l-5.6 5.6-1.5 1.5c-.2.2-.5.3-.8.2h-.1l-1.4-.4-.3.3.3.3 4.1 4.1.3.3.3-.3-.5-1.5c-.1-.3 0-.7.3-.9l7-7c1.5-1.5 2.9-2.8 3-5.1 0-1-.2-2-.7-2.9l-.2-.4c-.1-.1-.1-.2-.2-.3-1.1-2-2.8-3.7-4.9-4.7h-.1c-.8-.4-1.7-.6-2.7-.6-2.3.1-3.6 1.5-5.1 3l-7.1 7.1c-.2.2-.6.3-.9.3h-.1l-1.5-.5-.1.4zm25.6 25.6.2.2 1.4 1.4 1.6 1.6 1.4 1.4.2.2.3-.3-.5-1.5c-.1-.3 0-.6.3-.9l9.8-9.9c3-2.9 5.2-3.8 9.3-1.8l.4-.4s-3.2-3.2-6.3-2.9c-1.6.1-3.4 1-5.5 2.9l-9.8 9.8c-.2.2-.6.4-.9.3h-.1l-1.5-.4-.3.3z"/><path d="M99.5 51c-3.9 4.2 3.5 10.7.7 13.6-1.4 1.4-3.5.5-4.7-.7-.6-.6-1-1.3-1.4-2-.3-.8-.5-1.8-.4-2.7V59l-.1-.1-.2-.2-2 3.5.3.3c.3-.1.6.4.6.4.5.8 1 1.6 1.7 2.3 2.5 2.8 6.2 4.2 8.8 1.6 4.4-4.4-3.6-10.7-.3-13.9 1.5-1.5 4.2-.7 5.4.5.8.9 1.5 1.9 2 3 .4 1 .6 2 .5 3.1l.4.3 2.2-3.9-.2-.2c-.3.1-.5 0-.7-.3-.7-1.2-1.6-2.3-2.5-3.3-3.6-3.6-7.9-3.4-10.1-1.1zM82 33.5c-3.9 4.2 3.5 10.7.7 13.6-1.4 1.4-3.5.5-4.7-.7-.6-.6-1-1.2-1.3-2-.3-.8-.5-1.8-.4-2.7v-.2l-.1-.2-.2-.2-2 3.5.3.3c.3-.1.6.4.6.4.5.8 1 1.6 1.7 2.3 2.5 2.8 6.2 4.2 8.8 1.6 4.4-4.4-3.6-10.7-.3-13.9 1.5-1.5 4.2-.7 5.4.5.9.9 1.5 1.9 2 3 .4 1 .6 2 .5 3.1l.4.3 2.2-3.9-.2-.2c-.3.1-.5 0-.7-.3-.7-1.2-1.5-2.3-2.5-3.3-3.8-3.6-8.1-3.4-10.2-1zM28.3 55l.3-.3 4.1-4.1.3-.3-.3-.3-1.5.5c-.3.1-.6 0-.8-.2l-.1-.1-7.1-7.1c-2.6-2.6-3-5.2-1.1-7.3l.3-.3c2.1-2.1 4.7-1.8 7.4 1l5.6 5.6 1.5 1.5c.2.2.3.5.2.8v.1l-.4 1.5.3.3.3-.3 4.1-4.1.3-.3-.3-.3-1.4.4c-.3.1-.7 0-.9-.3l-7-7.1c-1.5-1.5-2.8-2.9-5.1-3-1 0-2.1.2-3 .7l-.4.2-.3.2c-2 1.1-3.5 2.9-4.5 4.9v.1c-.4.8-.6 1.8-.6 2.7.1 2.3 1.5 3.6 3 5.1l7.1 7.1c.2.2.3.6.3.9l-.5 1.5.2.3zm25.6-25.5.2-.2 1.4-1.4 1.6-1.6 1.4-1.4.2-.2-.3-.3-1.4.4c-.3.1-.6 0-.9-.3l-9.8-9.8c-2.9-3-3.8-5.2-1.8-9.3l-.5-.3s-3.2 3.2-2.9 6.3c.1 1.6 1 3.4 2.9 5.5l9.8 9.8c.3.2.4.6.3.9v.1l-.5 1.5.3.3z"/><path d="M50.6 13.4c4.3 3.9 10.8-3.5 13.6-.7 1.4 1.4.5 3.5-.7 4.7-.6.6-1.3 1-2 1.3-.8.3-1.7.5-2.7.4h-.3l-.2.2-.2.2 3.5 2 .3-.3c-.1-.3.4-.6.4-.6.8-.5 1.6-1 2.3-1.7 2.8-2.5 4.2-6.2 1.6-8.8-4.4-4.4-10.7 3.6-13.9.3-1.3-1.3-.5-4.1.7-5.3.9-.8 1.9-1.5 3-2 1-.4 2-.5 3.1-.5l.3-.4L55.5 0l-.2.2c.1.3 0 .5-.2.7-1.2.7-2.3 1.5-3.3 2.5-3.7 3.6-3.5 7.9-1.2 10zM33.1 31c4.3 3.9 10.8-3.5 13.6-.7 1.4 1.4.5 3.5-.7 4.7-.6.6-1.2 1-1.9 1.4-.8.3-1.8.5-2.7.4h-.2l-.2.1-.2.2 3.5 2 .3-.3c-.1-.3.4-.6.4-.6.8-.5 1.6-1 2.3-1.7 2.8-2.5 4.2-6.2 1.6-8.8-4.4-4.4-10.7 3.6-13.9.3-1.5-1.5-.7-4.2.5-5.4.9-.8 1.9-1.5 3-2 1-.4 2-.6 3.1-.5l.3-.4-3.8-2.2-.2.2c.1.3 0 .5-.3.7-1.2.7-2.3 1.5-3.3 2.5-3.8 3.7-3.5 8-1.2 10.1zM55.1 83.5l-.3-.3-4.1-4.1-.3-.3-.4.3.5 1.5c.1.3 0 .6-.2.8l-.1.1-7.1 7.1c-2.6 2.6-5.2 3-7.3 1.1l-.3-.3c-2.1-2.1-1.8-4.7 1-7.4l5.6-5.6 1.5-1.5c.2-.2.5-.3.8-.2h.1l1.5.3.3-.3-.3-.3-4.1-4.1-.3-.3-.3.3.5 1.5c.1.3 0 .7-.3.9l-7 7c-1.5 1.5-2.9 2.8-3 5.1-.1 1 .1 2.1.6 3 0 0 .1.1.2.4l.2.3c1.1 2 2.9 3.5 4.9 4.5h.1c.8.4 1.8.6 2.7.6 2.3-.1 3.6-1.5 5.1-3l7.1-7.1c.2-.2.6-.4.9-.3l1.5.5.3-.2zM29.4 57.9l-.2-.2-1.4-1.4-1.6-1.6-1.4-1.4-.2-.3-.3.3.5 1.5v.1c.1.3 0 .6-.3.9l-9.9 9.8c-3 2.9-5.2 3.8-9.3 1.8l-.3.4s3.2 3.2 6.3 2.9c1.6-.1 3.4-1 5.5-2.9l9.8-9.8c.2-.3.6-.4.9-.3h.1l1.5.5.3-.3z"/><path d="M13.4 61.1c3.9-4.3-3.5-10.8-.7-13.6 1.4-1.4 3.5-.5 4.7.7.6.6 1 1.3 1.3 2 .3.8.5 1.7.4 2.7v.3l.2.2.2.2 2-3.5-.3-.3c-.3.1-.6-.4-.6-.4-.5-.8-1.1-1.6-1.7-2.3-2.5-2.8-6.2-4.2-8.8-1.6-4.4 4.4 3.6 10.7.3 13.9-1.4 1.4-4.1.6-5.3-.6-.8-.9-1.5-1.9-2-3-.4-1-.5-2-.5-3.1l-.4-.3L0 56.3l.2.2c.3-.1.5 0 .7.3.7 1.2 1.5 2.3 2.5 3.3 3.6 3.6 7.9 3.3 10 1zM31 78.7c3.9-4.3-3.5-10.7-.7-13.6 1.4-1.4 3.5-.5 4.7.7.6.6 1 1.3 1.4 2 .3.8.5 1.7.4 2.7v.3l.2.2.2.2 2-3.5-.3-.3c-.3.1-.6-.4-.6-.4-.5-.8-1-1.6-1.7-2.3-2.5-2.8-6.2-4.2-8.8-1.6-4.4 4.4 3.6 10.7.3 13.9-1.5 1.5-4.2.7-5.4-.5-.8-.9-1.5-1.9-2-3-.4-1-.6-2-.5-3.1l-.5-.4-2.2 3.8.2.2c.3-.1.5 0 .7.3.7 1.2 1.5 2.3 2.5 3.3 3.6 3.6 7.9 3.4 10.1 1.1z"/></svg>