<svg xmlns="http://www.w3.org/2000/svg" viewBox="0 0 126 121"><style>.st2{fill:#fff}</style><g id="Layer_3"><circle cx="62" cy="58.5" r="56" fill-rule="evenodd" clip-rule="evenodd" fill="#0055a2"/><path d="M8.5 58C8.8 28.7 32.7 5 62 5s53.2 23.7 53.5 53h5C120.2 26 94.1 0 62 0S3.8 26 3.5 58h5z" fill="#e5a823"/></g><g id="Layer_2"><path class="st2" d="M85.8 61.7L80.3 59c.1 1.5-.1 2.7-.4 4.2l5.9-1.5zm-6.5-8.8c.5 1.4.8 3 .9 4.5l4.8-3.5-5.7-1zm3.4-5.9l-6.3.7c.9 1.3 1.7 2.6 2.3 4.1l4-4.8zm-7-.1l2.5-5.7-5.8 2.5c1.2.9 2.3 2 3.3 3.2zm-3.9-3.6l.8-6.2-4.9 3.9c1.5.6 2.8 1.4 4.1 2.3zm-9.6-3.6c.8.1 1.6.2 2.4.4.7.2 1.5.4 2.2.6l-1-6.1-3.6 5.1zm-1.1-.1l-2.6-5.5-1.9 5.9c1.4-.3 3-.4 4.5-.4zM46.8 45c1.1-1 2.4-2 3.7-2.8L45.2 39l1.6 6zm4.6-3.2c1.3-.7 2.7-1.2 4.2-1.6l-4-4.5-.2 6.1zM84 68.9l-4.3-4c-.4 1.4-.7 2.1-1.5 3.3l5.8.7zm-35.8-40s-2.8.9-6.9 3.9l7.7 5.7-.8-9.6zm9.1-2.3s-3.4.1-8.2 1.8l6.3 7.7 1.9-9.5zm9.4.7s-3.3-.9-8.4-.7l3.7 9.2 4.7-8.5zm8.7 3.4s-2.9-1.9-7.8-3.2l.8 9.9 7-6.7zm7.3 5.9s-2.2-2.6-6.5-5.4L74 40.9l8.7-4.3zm5.1 7.6s-1.3-3.1-4.6-7l-4.9 8.6 9.5-1.6zm2.7 8.7s-.3-3.4-2.3-8.1L81 51.5l9.5 1.4zm.2.9l-8.5 4.4 8.6 3.7c-.1 0 .5-3.2-.1-8.1zm-2.5 16.8s1.5-2.9 2.4-7.8l-9.5 1.6 7.1 6.2zM40.6 33.4S38.1 35.3 36 38l8.2 5.3-3.6-9.9z"/><path class="st2" d="M75.6 61.4c-.4-6.6-3.9-12.8-10.9-15 0 0-4.9-1.7-9-.2 0 0 3-2.9 9.8-1l.3.1c7.1 2.2 9.9 7.6 11.1 11.9.4 1.4 1.1 4.7.3 10.8 0 0 1.8-3.5 1.7-8.2-.1-10-8.2-18.2-18.3-18.4-5.7-.1-10.3 3-12.4 5l2.2 2.1c-1.2 1.1-2.7 2.6-3.6 4.4 0 0-3.6 7.1-6.4 16.2l2.8-1.1s.1-.4.4-1.1c2-5.7 2.6-5.9 2.6-5.9.8-1 2.7-1 2.7-1l6.7-.2s-1.2 3.4-8.9 3.6L40.9 86s15.4-6.5 20.7-7.3c2.4-2.3 2-6.7 1.8-8.3-.1-.4-.1-.6-.1-.6s-1.9 5.7-5 6.9L45 81.3l4.1-16.2s8.4-.1 10.1-7.3c0 0-11-.5-11.8.3 0 0 2.9-10.8 13.7-9.9 0 0 10.9.7 12 12.9 0 1.4-.1 4.4-.8 6-1.1-.7-2.5-1.4-3.3-1.8l8.1 11c-2.6-.6-5.1-.8-7.4-.9-3.5-.5-4.9-2.8-4.9-2.8l2.5 5.4c7.1-.5 15.9 2.7 15.9 2.7l-8.5-12c1.1-3.9.9-7.3.9-7.3z"/><path class="st2" d="M84.7 76.5s1.6-2 3.2-5.3L78 69.4l6.7 7.1z"/></g></svg>